<svg id="people" className="svg-animate active-svg" xmlns="http://www.w3.org/2000/svg" viewBox="0 0 700 450"><defs>
  <style>
    @keyframes dash {
      from {
        stroke-dashoffset: 5000;
      }
      to {
        stroke-dashoffset: 0;
      }
    }
    .path {
      stroke-dasharray: 5000;
      stroke-dashoffset: 5000;

      will-change: stroke-dashoffset;
      animation: dash 1.8s ease-in-out alternate 2;
    }
  </style>
</defs><path className="path watch-path" fill="#FFFFFF" stroke="#000000" stroke-width="2" stroke-miterlimit="10" d="M610.36,290.58l-16.87-.08-18.41-.08c1.87-2.36,1.77-5.93,2-8.86.12-1.77.23-3.55.35-5.32.24-3.68.49-7.37.72-11.05.16-2.68.27-5.37.17-8.05a36,36,0,0,0-1-7.36,26,26,0,0,0-2.31-6.34c-.83-1.51-2.2-2.67-3.11-4.12a6.39,6.39,0,0,1-.57-1.14,22.42,22.42,0,0,1-1.36-9c.23-5.28,2-10.54,3.84-15.59.53-1.45,1.07-2.88,1.59-4.28a69.36,69.36,0,0,0,4.2-26.64c0-.82-.05-1.65-.11-2.48a120.92,120.92,0,0,0-2.06-14.91c-.12-.62-.23-1.23-.36-1.85-1.12-5.25-2.75-10.67-6-15a21.64,21.64,0,0,0-2.49-2.77,25.72,25.72,0,0,0-6.26-4.15q0-3.82.37-7.64c.24-2.61.59-5.22,1.06-7.81.23-1.28.5-2.55.77-3.82.54-2.53,1.11-5,1.59-7.6.23-1.21.41-2.41.55-3.62a38.5,38.5,0,0,0-.08-9.65,31.63,31.63,0,0,0-.66-3.59,12.51,12.51,0,0,0-5.29-8,14.61,14.61,0,0,0-2.36-1.23c-2.89-1.18-6.33-1.52-9-.08l-.05-.08a1.82,1.82,0,0,0-2.52-.45,1.89,1.89,0,0,0-.74.77,1.86,1.86,0,0,0-.18.64,42.77,42.77,0,0,0-12.37.4,20.56,20.56,0,0,0-5.52,2,15.46,15.46,0,0,0-7,7.44,13.62,13.62,0,0,0-1,7.42.63.63,0,0,0,0,.19c0,.15.05.3.08.45a79.46,79.46,0,0,0-.23,9.88,56.59,56.59,0,0,0,.74,7.23c.35,2.1.68,4.61,1.81,6.51a5.74,5.74,0,0,0,.43.66,7.66,7.66,0,0,0,5.59,2.68,31.78,31.78,0,0,0,6.37-.33c.89-.11,1.78-.23,2.64-.32,2.09-.22,4.29-.49,5.88-2a7.8,7.8,0,0,0,2.08-4.63c.07-.42.13-.84.17-1.26a61.6,61.6,0,0,0,.33-6.93,3.3,3.3,0,0,0,1.67-.75,17.56,17.56,0,0,0,2.15-1.81,9.32,9.32,0,0,0,2.93-5.64,36.21,36.21,0,0,0,.18-6.91c-.07-1.15-.17-2.28-.34-3.4-.27-1.78-.77-3.5-1.16-5.25a1.56,1.56,0,0,0,.36-.32,14,14,0,0,1,3.66,5.91c1.43,4.27,1.35,9.23,1.31,13.71,0,.49,0,1,0,1.44,0,4.43-.07,8.92.14,13.38a75.21,75.21,0,0,0,1.17,10.6c-1.12-.41-2.24-.82-3.33-1.28a20.46,20.46,0,0,0-2.82-1,28.49,28.49,0,0,1-8.06-3.81.66.66,0,0,0-.63-.08l0,0-.12.07-.07,0-.09.06a46.87,46.87,0,0,1-10.34,7.94c-.25.15-.5.31-.76.45a20.12,20.12,0,0,1-.06-5.85v0a1,1,0,0,0,0-.18.64.64,0,0,0-.71-.54.75.75,0,0,0-.8.53c0,.06,0,.13-.08.19h0a34.6,34.6,0,0,1-1.54,3.74.78.78,0,0,0-.21.17c-3.57,4.45-6.88,9.09-10.13,13.78-2.93,4.23-5.81,8.49-8.75,12.7-3.18,4.55-6.43,9-9.95,13.34-.19.24-.39.47-.59.7a128.19,128.19,0,0,1-9.6,10.45,12.86,12.86,0,0,1-2,1.65,6.05,6.05,0,0,1-.93.53c-1.16.53-2.38.92-3.53,1.48a51.16,51.16,0,0,0-7.68,4.93q-1.84-4.18-3.7-8.39-2.33-5.34-4.62-10.7a.6.6,0,0,0-.72-.39h-.25L449.28,180l-16.79-.22-11.2-.15-3.88,0-9.21-.13a.63.63,0,0,0-.36,0,.66.66,0,0,0-.54.38.86.86,0,0,0-.09.42s0,.07,0,.11l0,.14a.54.54,0,0,0,0,.1q2.28,5.19,4.59,10.38,2.5,5.6,5,11.18c1.75,3.86,3.52,7.73,5.3,11.58q2,4.46,4.12,8.88l-8.28-.12-6.17-.11c-4.8-.08-9.59-.17-14.39-.35-1,0-1,1.52,0,1.55,4.76.18,9.53.3,14.29.4,7,.15,13.92.23,20.88.32l10.53.13,10.58.14,23.74.32,23.32.31,2.31,0c6,.08,12,.14,18,.28a.78.78,0,0,0,0-1.55c-2.76-.07-5.51-.12-8.27-.17l.21-3.05c0-.4,0-.81.08-1.22a.79.79,0,0,0-.78-.78c-2.58-.14-5.16-.26-7.75-.38q-6.64-.28-13.29-.47c-2.73-.07-5.45-.13-8.18-.18l-1-2.11c-.21-.44-.4-.89-.6-1.33,1.14-.39,2.3-.73,3.47-1l.55-.15-.29.28a.79.79,0,0,0,.55,1.33,36.72,36.72,0,0,0,5.55-.39h.1c1.52-.07,2.95.33,4.44,0h0a97.27,97.27,0,0,1,14.18,0c3.18.17,6.37.38,9.55.47,1.65,0,3.3,0,4.95,0a70.29,70.29,0,0,1,.86,12.85,36.06,36.06,0,0,1-1.61,9.44s0,.06,0,.08c-.5,1-3,1.15-3.9,1.29a22.2,22.2,0,0,1-3.81.27c-.25,0-.5,0-.75,0-5.12-.28-10.17-1.53-15.21-2.41a49.4,49.4,0,0,0-6.13-.83,14.77,14.77,0,0,0-6.21.84,12.64,12.64,0,0,0-5.95,5.36c-.78,1.25-1.49,2.53-2.15,3.84a113.56,113.56,0,0,0-4.67,11.15h-1c-2.13.09-4.27.18-6.41.33-1.24.09-2.49.2-3.73.36a19.5,19.5,0,0,0-7.28,1.91,16.35,16.35,0,0,0-6.51,9.42c-1.65,5.59-1.44,12.11-1.41,17.52,0,1,0,1.95,0,2.92,0,6-.05,12-.12,18q0,3.36-.08,6.73c-.06,5.41-.11,10.82-.11,16.23-1.48,4.25-3,8.5-4.4,12.79-1,2.92-1.88,5.86-2.71,8.82a4.12,4.12,0,0,0-.28-.31c-1.12-1.26-2.26-2.5-3.36-3.78a34.25,34.25,0,0,0-3.64-4.07c-.16-.14-.32-.3-.49-.43-1-.74-3.07-1.86-4.27-1-1.4,1.05-.25,3.61.22,4.85l.9,2.31c1.16,3,2.36,5.9,3.57,8.84l1.92,4.67c.67,1.63,1.36,3.32,3.33,3.6,1.78.26,3.17-.92,4.08-2.32l.36-.64c2.4-4.19,4.76-8.38,7.14-12.58q.09,6.9.32,13.8.19,5.69.49,11.36t.7,11.59l-.49.12a51.61,51.61,0,0,0-6.24,1.77,17.26,17.26,0,0,0-4.69,2.42c-.81.62-1.88,1.51-1.75,2.66a.59.59,0,0,0,.05.19,1.23,1.23,0,0,0,.09.23H365.4l-42.85,0H288.78a9.64,9.64,0,0,0-.14-1.46c-.69-3.87-4-5.82-7.8-6.94a53.09,53.09,0,0,0-6.76-1.38c.35-1.3.7-2.61,1-3.92.88-3.3,1.75-6.6,2.58-9.91l.18-.71q.8-3.18,1.57-6.36c.47-1.95,1.49-4.34,1.28-6.36a2.2,2.2,0,0,0-.55-1.33,3.26,3.26,0,0,0-2.2-.76l-1.3-.07c.1-2.15.35-4.94.47-7h0c.08-1.51.14-3,.18-4.51l3.3,4.63,1.43-.64-5.22-7.34c1.89-1.24,3.81-2.44,5.74-3.62l2.88-1.74a43.94,43.94,0,0,1,4.62-2.63,2.19,2.19,0,0,1,1-.28h0a1,1,0,0,1,.6.26,3.58,3.58,0,0,1,.61,1.41c.34,1,.66,1.91,1,2.87.74,2.17,1.45,4.36,2.17,6.54q2,6,3.88,12c.41,1.32.83,2.62,1.24,3.94a.79.79,0,0,0,1.14.46,43,43,0,0,1,8.66-3.16c2.65-.49,5.19-.23,7,1.72a5.26,5.26,0,0,1,.44.49L305.87,367l-.92.6L301.39,370l-1.77,1.16c-.42.27-1.12,1-1.61,1a2,2,0,0,1-1.55-.82c0,.67,0,1.36,0,2.08a2.42,2.42,0,0,0,1.23.4,4.91,4.91,0,0,0,2.48-1.19l4.06-2.66,2.25-1.47,12.8-8.38a.8.8,0,0,0,.28-1.06,9.37,9.37,0,0,0-.65-.92c-2.2-2.79-5.39-3.18-8.68-2.59a40.06,40.06,0,0,0-8.45,2.92c-.34-1.11-.69-2.22-1-3.33q-1.43-4.58-2.91-9.13l-.93-2.9c-1.06-3.34-2.12-6.69-3.39-9.94a3.42,3.42,0,0,0-1.74-2.11,2.06,2.06,0,0,0-.53-.12,3.28,3.28,0,0,0-1.33.26c-.94-3.69-2.12-7.33-3.36-10.94-.72-2.08-1.45-4.15-2.16-6.22q-2.3-6.67-4.69-13.33l-.78-2.15q.06-9.68-.16-19.36c0-2.19-.06-4.41-.1-6.65a76.15,76.15,0,0,0-1.45-15.21,26.3,26.3,0,0,0-1.29-4.06,18,18,0,0,0-6.63-8.34c-3.37-1.94-7.73-2.27-11.61-2.56l-.39-1q-1.06-2.53-2.19-5a45.5,45.5,0,0,0-4.48-8,13.43,13.43,0,0,0-8-5.35,21.92,21.92,0,0,0-7.53-.27c.06-2.07.12-4.53.18-7.07.07-3.26.13-6.58.18-9.2h.32l23.39-.21,3.23,0,29.26-.27,12.11-.1,18.64-.19,22.26-.23,10.45-.13q8.24-.09,16.47-.26l1.89-.05c1,0,1-1.58,0-1.55-6.12.16-12.24.24-18.36.31l-6.08.07h-1c.67-2.84,1.37-5.68,2.12-8.5.68-2.6,1.39-5.18,2.14-7.76a5.63,5.63,0,0,0,1.7,0c1-.24,1.84-1.79,2.29-3.06h0a6.18,6.18,0,0,0,.28-1.08c.37-2.67-3.35-2-5-2l-1.15,0-4.65-.08a44,44,0,0,0,.72-10.33c0-.76,0-1.52,0-2.27,0-1.24-.39-3.87.45-5a1.75,1.75,0,0,1,1-.51c.51-.14,1-.25,1.56-.36a6.71,6.71,0,0,0,2.64-1c2.08-1.51,2.77-4.39,3.08-6.79,0-.13,0-.26,0-.4h0a35.59,35.59,0,0,0,0-9.28A10.8,10.8,0,0,0,355,144c-.42-1.61-1.28-3.24-3.14-3.1-2.4.19-2.81,3.33-3,5.17-.11.93-.15,1.87-.22,2.8a16.41,16.41,0,0,1-.29,2.09,7.48,7.48,0,0,1-.8,2.14c-.27.46-.6,1.26-1.06.87-.75-.63-.56-2.67-.51-3.54v0c.1-2,.21-4,.15-6a15.27,15.27,0,0,0-.74-4.77,4.43,4.43,0,0,0-2.41-2.66c-2.48-1-4.6,1.4-5.29,3.54a10.55,10.55,0,0,0-.41,1.87c-.39,2.76.08,5.77.28,8.45.11,1.48.28,3,.37,4.58a19.9,19.9,0,0,1-.32,5.63,3.45,3.45,0,0,1-.82,1.89c-.93.72-1.24-.43-1.43-1.16-.06-.2-.09-.42-.14-.63a19.11,19.11,0,0,1-.3-4c0-1.5.12-5-1.54-6a2,2,0,0,0-.79-.28c-1.14-.15-2.13.95-2.76,1.76a10.66,10.66,0,0,0-1.71,4.47q-.21,1-.33,2a16.47,16.47,0,0,0,.29,6.3c.09.34.19.67.31,1a8.36,8.36,0,0,0,2.28,3.5l.31.23a7.7,7.7,0,0,0,3.49,1.13c1.26.2,2.57.45,2.89,2a16.1,16.1,0,0,1,.08,2.69c0,.17,0,.33,0,.49,0,1.6.07,3.19.12,4.78l-1.12,0c-2.57,0-5.16-.2-7.73-.13a2.25,2.25,0,0,0-1.59.54c-1.29,1.25.37,4.37,1.48,5.64a.65.65,0,0,0,.63.22h.67c.54,2.7,1.13,5.4,1.75,8.08l1.39-.16-.47,0-.92.11c.34,1.42.68,2.85,1,4.26s.71,2.81,1.09,4.2v0l-11.38.12-13.08.14-14.73.13q2.61-5.57,5.19-11.15,3.44-7.47,6.81-15,3-6.72,6-13.46c.42-.94.84-1.88,1.25-2.82a.38.38,0,0,0,0-.1l0-.13s0-.08,0-.12a.71.71,0,0,0-.63-.8.63.63,0,0,0-.36,0l-8.62.12-18.28.23-19.48.24-2,0-9.4.13a.59.59,0,0,0-.6.17,1.07,1.07,0,0,0-.13.21q-3.39,7.92-6.88,15.8c-.9,2-1.82,4.08-2.72,6.12q-.93-5.91-2-11.78c-.52-2.79-1.05-5.59-1.6-8.37-.47-2.34-.94-4.69-1.44-7-1.32-6.29-2.79-12.56-4.61-18.72a51,51,0,0,0-3.62-9.65h0c-.27-.68-.55-1.36-.86-2a32.78,32.78,0,0,0-2.15-4,37.29,37.29,0,0,0-3.42-4.67,82.66,82.66,0,0,0-6.3-6.12,30.51,30.51,0,0,1-4.71-5.42,8.89,8.89,0,0,0,2.23-5.09c.32-1.88.42-3.84.64-5.42.34-2.54.67-5.08,1-7.62.47-3.53.94-7.06,1.46-10.58a10.14,10.14,0,0,0,4-3,13,13,0,0,0,1.76-3,15.42,15.42,0,0,0,1.23-7.2,13.61,13.61,0,0,0-7.11-10.61l-.09,0a.77.77,0,0,0-1.05.49,6.84,6.84,0,0,1-5,5.16s0-.07,0-.11a10.46,10.46,0,0,0-1.5-5.25.78.78,0,0,0-1.22-.16,14.37,14.37,0,0,1-1.68,1.8,14.56,14.56,0,0,1-4.59,2.81l-.38.15a10.47,10.47,0,0,0,.55-1.72A.78.78,0,0,0,203,56c-1.93,1.49-4.73.66-7.25.61a7.34,7.34,0,0,0-2,.19c-3,.8-4.63,3.38-5.37,6.23,0,.2-.1.38-.14.58Q187.16,70.3,186,77a.86.86,0,0,0,.94,1c-.35,2.07-.7,4.13-1,6.2-.3,1.89-.61,3.78-.89,5.67-.22,1.54-.64,3.37-.89,5.21a14.6,14.6,0,0,0,0,5,.57.57,0,0,0-.15.16,4.39,4.39,0,0,0-.51,1.29h-.05a69.65,69.65,0,0,0-13,2l-.63.17a47.39,47.39,0,0,0-12.54,5.87,43.83,43.83,0,0,0-6.19,5,53.84,53.84,0,0,0-11.74,17.3c-.7,1.61-1.34,3.25-1.94,4.9a158.25,158.25,0,0,0-6.07,23c-.05.23-.09.47-.14.71q-2.48,12.36-3.73,24.91c-.19,1.93-.37,3.88-.51,5.82-.41,5.51-.66,11-.82,16.54-.18,6.44-.26,12.88-.34,19.32v.12c-.64,6.09-.9,12.27-1,18.43q0,3.49,0,7c0,5,.23,10.06.54,15.1.2,3.18.44,6.36.76,9.51s.5,6.61,1.75,9.52l-19.63.07-18.64.07a.78.78,0,0,0,0,1.55l18.66-.06,23.64-.09,23.75-.08,12.52-.05,6.65,0c.11,5.34.19,10.69.27,16q.16,11.26.27,22.52l.21,21.14h1.52q-.11-10.57-.2-21.15-.09-9-.19-18l-.06-4.43c-.07-5.37-.15-10.75-.27-16.12q11.67,0,23.32-.09c9.33-.07,18.65-.19,28-.46l1.42,0q7.46-.21,14.9-.45l.82,1.32c1.87,3,3.71,6.12,5.66,9.13s4,6.25,6,9.4l2.21,3.52c.45,6.14,1,12.28,1.5,18.41.41,4.83.82,9.66,1.19,14.49.07.87.15,1.75.21,2.62.08,1,.15,2.06.22,3.09h0a4.62,4.62,0,0,0,0,1.39c.12,1.62.23,3.24.35,4.87a1.41,1.41,0,0,0,.06.22l-2.22,0a.75.75,0,0,0-.35.08.67.67,0,0,0-.43.69c.07,1.38.15,2.76.24,4.13.26,4.59.53,9.18.64,13.78,0,.23,0,.46,0,.69a75.76,75.76,0,0,1-.35,9.76c-.08.65-.16,1.29-.25,1.94a22.16,22.16,0,0,0-.17,6.35,5.88,5.88,0,0,0,.57,2h-82.1a.8.8,0,0,0,.12-.42q-.3-10.67-.48-21.34-.22-12.71-.34-25.41h-1.52q.12,11.88.3,23.78l0,1.63c.12,7.11.25,14.23.45,21.34a.82.82,0,0,0,.15.42H89a.78.78,0,0,0,0,1.56H593.89a.78.78,0,0,0,0-1.56H544.7q.25-9.51.42-19,.21-11.28.34-22.57h-.05q.15-12.67.28-25.36.09-8.15.19-16.29,0-3.35.1-6.69.09-6.6.23-13.21l16.83.07,10,.05h0l8.78,0,11.54.06,17,.07A.78.78,0,0,0,610.36,290.58ZM333.42,169.52a4.48,4.48,0,0,1-1.34-.57,6.65,6.65,0,0,1-2.64-4.41,13.34,13.34,0,0,1-.3-2.68,26.58,26.58,0,0,1,.11-2.73c.2-2.17.74-4.48,2-5.89.74-.81,1.21-.87,1.6,0,0,.1.09.2.13.32a6.64,6.64,0,0,1,.35,1.92c.08,1.63-.06,3.21.14,4.83.06.48.13,1.08.26,1.68.29,1.32.88,2.66,2.28,2.75,3.19.19,3.62-4.38,3.48-8.31-.08-2.18-.34-4.16-.4-5-.2-2.64-.72-5.69-.4-8.45a10.5,10.5,0,0,1,.43-2.05c.53-1.63,2.41-3.71,4-1.9a4.69,4.69,0,0,1,.95,1.84,15.41,15.41,0,0,1,.41,3.84c0,.49-.25,3.37-.12,6.08.15,3.19.83,6.14,3.12,4.7a5.64,5.64,0,0,0,2.13-3.49l-.51-1.48.51,1.48a17.8,17.8,0,0,0,.46-2.74,34.06,34.06,0,0,1,.51-4.72,3.73,3.73,0,0,1,.57-1.53c1-1.09,1.73-.17,2.1.8a10.2,10.2,0,0,1,.37,1.26,28.23,28.23,0,0,1,.25,7.61c0,.68-.08,1.45-.17,2.26h0c-.28,2.41-1,5.07-3.06,6.08a17.79,17.79,0,0,1-3,.74,3.25,3.25,0,0,0-2,1.19c-.8,1.15-.68,2.94-.71,4.26s0,2.42,0,3.65a40.79,40.79,0,0,1-.77,10.49l-4.48-.09h-.65c0-1.33-.07-2.67-.1-4v-.77a16.6,16.6,0,0,0-.2-3.94C338.18,170,335.42,170,333.42,169.52Zm-3.95,16.36c-.64-.77-1.64-2.15-1.05-2.93a1,1,0,0,1,.51-.33,6.67,6.67,0,0,1,1.67,0l3.5.06,5.59.09,1.63,0,8.95.17h.14l2.87.06,1.18,0c1,0,.51-.18.54.33a2.32,2.32,0,0,1-.34,1.09h0a12.93,12.93,0,0,1-1,1.54l-6.06,0h0l-11.3-.06Zm3.7,9.46q-.92-3.93-1.71-7.89l4.74,0,8.64.05h2.64l3.2,0c-.72,2.51-1.42,5-2.08,7.56-.77,2.91-1.49,5.84-2.18,8.78l-11.06.12c-.49-1.81-.95-3.62-1.4-5.44C333.69,197.49,333.43,196.42,333.17,195.34Zm-71.26,49.07a18.65,18.65,0,0,1,6.57,1.86,15.93,15.93,0,0,1,6,7.65c1.68,4.23,2.07,9.11,2.31,13.63.09,1.65.16,3.31.22,5,.22,5.9.29,11.81.33,17.72,0,1.34,0,2.68,0,4-1-2.9-2.09-5.81-3.15-8.7-.53-1.44-1.08-2.88-1.61-4.32q-3.72-10.07-7.56-20.09c-.63-1.65-1.26-3.32-1.9-5-1.58-4.07-3.16-8.15-4.81-12.2C259.43,244.08,260.62,244.22,261.91,244.41Zm-26.67-39.47-10.06.09-9.59.09-5.84.06-.24-3.58,1,0h0q6-.31,12-.52,7.33-.25,14.67-.38C236.54,202.08,235.9,203.51,235.24,204.94ZM216,206.67l5.09,0,12.74-.11c0,2.59-.1,5.88-.17,9.11-.05,2.57-.11,5.1-.18,7.19-6,.05-12,.38-18,.86.19-3.31.33-5.95.41-8.56S216,209.91,216,206.67Zm20-16.28a6.66,6.66,0,0,0-.62-.56c.35.13.7.29,1,.43.55.22,1.11.43,1.66.68a3.76,3.76,0,0,0,2.84.47l.12,0a2,2,0,0,0,.53-.35c-.23.53-.46,1.06-.7,1.58l-3,6.48-2.34,0c.1-4.79.06-2.57.1-7.43A.81.81,0,0,0,236,190.39ZM249,178q3.22-7.34,6.4-14.71l.09-.2,11-.14,19.35-.24,17.83-.22H304l8-.1c-.42,1-.85,1.9-1.27,2.84q-2.82,6.41-5.7,12.77-3.39,7.5-6.82,15-2.64,5.73-5.32,11.44h-1.24l-27,.24-2.23,0-25.43.23c1.85-4,3.68-8,5.49-12.06Q245.77,185.46,249,178Zm-12.56-28.58c.6,2.55,1.17,5.12,1.72,7.69q1.63,7.67,3,15.4c.19,1,.39,2.06.57,3.1.64,3.6,1.25,7.2,1.8,10.82-.52,1.15-1,2.31-1.55,3.47,0-1.69-2.29-4.07-3.13-4.87-.37-.36-.77-.7-1.17-1a16.4,16.4,0,0,0-2-1.37c.05-4.43,0-1.58,0-6.92v-.56c0-5.87,0-11.75-.18-17.62,0-2.16-.11-4.31-.19-6.47-.11-2.79-.28-5.61-.59-8.4C235.39,144.94,235.94,147.19,236.48,149.45Zm-22.32-36.36a5.51,5.51,0,0,0,1-3c.81.89,1.66,1.75,2.54,2.58,1.34,1.27,2.73,2.51,4.08,3.81a35.11,35.11,0,0,1,5.35,6.62c.32.52.64,1,.94,1.55a45.46,45.46,0,0,1,4.84,15.37c.44,3,.69,6.09.83,9.11.14,2.83.23,5.67.31,8.5.17,6.07.22,12.14.21,18.21,0,5.19,0,2.1,0,6a15.42,15.42,0,0,0-4.05-1.17,16.26,16.26,0,0,0-2.23-.16,8.47,8.47,0,0,0-5.45,1.57c-1.7-.43-3.37-.89-5.05-1.38l-2-.58c-.07-1.92-.1-3.22-.2-5.32-.23-5-.52-10-.83-15.05q-.6-9.37-1.38-18.74c-.28-3.23-.57-6.46-.89-9.69-.3-3-.55-6-.92-9a58.75,58.75,0,0,0-2.85-13.06l1.48,1.83c.71.86,1.68,2.63,3,2.63A1.64,1.64,0,0,0,214.16,113.09Zm-5.38-5.82q.81.06,1.62.09a5.64,5.64,0,0,0,2.32-.39c.27.41.53.82.82,1.2a5.43,5.43,0,0,1-.25,3.06l0,.08c-.45,1.39-1.27-.1-1.79-.73C210.55,109.49,209.68,108.37,208.78,107.27ZM189.77,64c0-.11.06-.22.08-.33.73-3,2.47-5.45,5.8-5.61h0c2.25-.09,4.46.54,6.52,0a8.13,8.13,0,0,1-.74,1.3c-.42.59.27,1.27.88,1.14l.9-.23a15.73,15.73,0,0,0,5.57-2.8,16,16,0,0,0,2-1.81,9.11,9.11,0,0,1,.75,4.52.78.78,0,0,0,.65.76.27.27,0,0,0,.13,0,8.38,8.38,0,0,0,7-5.51l.4.27A11.8,11.8,0,0,1,223.51,60a11.42,11.42,0,0,1,1.15,7.06,16.57,16.57,0,0,1-.86,3.27,9.45,9.45,0,0,1-5,5.68c-.14.06-.29.1-.43.15a.29.29,0,0,0-.13,0,13.81,13.81,0,0,1-4.92.76,23.06,23.06,0,0,1-7.64-1.63,25.12,25.12,0,0,1-4.08-2,28.12,28.12,0,0,1-7.34-6.54.67.67,0,0,0-.17-.2h0s0,0,0,0a.6.6,0,0,0-.67-.17.75.75,0,0,0-.31.2.69.69,0,0,0-.27.35c-.85,2.35-1.45,4.8-2.92,6.83l-.12-.15-.14-.18a.78.78,0,0,0-1.22.16c-.08.14-.17.27-.26.41Q189,69,189.77,64Zm-4,31.11c.25-1.62.56-3.24.79-4.82.29-2,.61-3.9.92-5.86.48-2.94,1-5.88,1.46-8.83v0l.18-.27.18.22a.45.45,0,0,0,.21.15.79.79,0,0,0,.89-.15,17.7,17.7,0,0,0,3.2-6.31c.07-.18.13-.36.19-.55a29.73,29.73,0,0,0,7,6h0a24.36,24.36,0,0,0,12.38,3.82,18.15,18.15,0,0,0,2.33-.08,14.86,14.86,0,0,0,2.23-.4q-.69,4.77-1.32,9.56c-.13,1-.26,1.92-.38,2.88-.36,2.74-.74,5.46-1.1,8.2,0,.25-.06.53-.09.83-.2,2-.4,4.8-2.12,5.89-1.28.81-3.12.39-4.52.22l-3.79-.48-1.73-.22-10.43-1.3-.73-.1c-3.11-.42-6.16-1.2-6.07-5.1A28,28,0,0,1,185.77,95.1Zm-.82,7a5.52,5.52,0,0,0,3.13,2.3,14.11,14.11,0,0,0,2.49.51l2,.24,6.13.77c1.85.23,3.73.54,5.6.81l1.64.22a27,27,0,0,1-.67,4.47c0,.11,0,.23-.07.34-.26,1.13-.37,2.88-1.89,2.37a25.09,25.09,0,0,1-4.27-2.48l-.75-.44c-2.18-1.29-4.37-2.57-6.61-3.77l-1.88-1-2.34-1.18C186.09,104.62,184.76,103.58,185,102.12ZM127.74,207.69c.24-7.41.64-14.8,1.33-22.17.63-6.62,1.48-13.23,2.68-19.81.3-1.63.61-3.28.92-5a148.72,148.72,0,0,1,6-23.25c3-8.07,7.08-15.57,13.22-21.57.74-.72,1.51-1.43,2.31-2.11a44.4,44.4,0,0,1,14.07-8c.9-.31,1.8-.57,2.71-.82a69.65,69.65,0,0,1,12.46-1.94h0a4.15,4.15,0,0,0,.6,1.5c.88,1.36,2.49,2,3.88,2.66l.79.41c3,1.56,6,3.27,9,5l1.27.75c2.29,1.35,5.92,4.37,7.28.48.21-.58.39-1.19.55-1.82s.26-1.19.36-1.79a56.83,56.83,0,0,1,2.55,12c.32,2.69.55,5.38.82,8,.36,3.57.68,7.15,1,10.73q.31,3.82.62,7.66c.28,3.69.53,7.38.77,11.07.46,7.09.75,12.89,1,19.88-3.19-1-6.36-2-9.53-3.12-4.11-1.39-8.21-2.82-12.34-4.15-.43-.14-.87-.26-1.32-.39-2.73-.77-5.8-1.47-7.71-3.56a5.42,5.42,0,0,1-1.2-2,41.5,41.5,0,0,1-1.11-5.92,2.7,2.7,0,0,0,0-.28c-.78-4.42-1.44-8.86-2.05-13.31q-.51-3.73-1-7.47c-.33-2.72-.64-5.44-1-8.16-.49-4.1-1-8.2-1.54-12.3-.13-1-1.63-.56-1.5.42.56,4,1.06,8.11,1.55,12.18.63,5.21,1.24,10.42,1.94,15.63.55,4.19,1.16,8.39,1.88,12.56.06.35.13.69.19,1,.27,1.51.53,3,.82,4.52a8.2,8.2,0,0,0,1,3.09c1.41,2.2,3.77,3.3,6.19,4.06.88.27,1.75.57,2.63.85q7.08,2.28,14.12,4.72l1,.35c4,1.39,8,2.67,12,3.82,1.79.51,3.58,1,5.39,1.44a.34.34,0,0,0,.14,0h.08a.5.5,0,0,0,.18,0,.46.46,0,0,0,.16-.07l.08,0a.83.83,0,0,0,.12-.08,6.7,6.7,0,0,1,4.86-1.42c.51,0,1,0,1.48.1a14,14,0,0,1,6.63,2.58c.3.21.58.44.86.67a15.5,15.5,0,0,1,2.06,2.07c.46.57,2.32,2.76.54,2.4h0a25.65,25.65,0,0,1-3.48-1.46c-1.37-.53-2.75-1-4.14-1.47h-.1a.78.78,0,0,0-.78,1.15,8.69,8.69,0,0,0,1.94,1.84c-1.12-.12-2.24-.25-3.35-.42a15.73,15.73,0,0,1-2.7-.61c-1-.35-1.84-1.11-2.82-1.48a3.05,3.05,0,0,0-.54-.14,28.14,28.14,0,0,0-3.13-.23c-1.63-.16-3.25-.34-4.87-.53-4.13-.5-8.26-1.07-12.39-1.68-2.7-.4-5.41-.81-8.11-1.23q-5-.78-10-1.61h0l-6.93-1.15a11.24,11.24,0,0,1-5.7-2.09,22.78,22.78,0,0,1-3.78-3.94c-2.88-3.73-5-8.28-7-12.3q-1.52-3-3-6c-2.81-5.76-5.48-11.6-8.14-17.43-.42-.91-1.76-.12-1.35.78,2.66,5.8,5.32,11.61,8.11,17.35h0c.77,1.58,1.54,3.16,2.34,4.73,2.36,4.67,4.73,9.53,7.93,13.72a35.21,35.21,0,0,0,2.37,2.81,12.35,12.35,0,0,0,4.18,3,27.67,27.67,0,0,0,5.95,1.2l4.5.75c2.73.45,5.47.9,8.21,1.33,3.42.54,6.85,1.07,10.28,1.57,3.2.47,6.42.92,9.63,1.33q3,.39,6,.71l2.57.26c.5,0,1.13,0,1.69.06a2.48,2.48,0,0,1,.58.12c.79.25,1.54.92,2.32,1.25a14.42,14.42,0,0,0,3.23.87c1.67.27,3.37.48,5.07.62,0,1.89-.05,5.32-.08,7.53q-5.74.12-11.49.31c-2.18.08-4.36.16-6.53.26,0-5.74,0-5.31-.26-11.61l-1.54-.18c.19,5.21.12,4.48.18,9.69,0,1.08,0,1.41,0,2.17l-5.74.28-.05,0a.77.77,0,0,0-.73.76c.1,1.45.19,2.89.29,4.34l-6.88.07-1.39,0a.78.78,0,0,0,0,1.55q7.26-.12,14.5-.17c0,3.24,0,5.84-.09,8.45s-.21,5.3-.4,8.66c-8.52.72-17,1.72-25.51,2.66-6.93.76-13.87,1.46-20.82,1.91-5.81.38-11.62.6-17.45.51-1.74,0-3.48-.08-5.22-.17a119.86,119.86,0,0,1-17.59-2.15C127.43,220.25,127.53,214,127.74,207.69Zm130.17,98.65q-3-4.81-6.11-9.58c-1.87-2.89-3.65-5.84-5.44-8.77-.91-1.5-1.83-3-2.77-4.48-2.4-4.06-4.87-8.18-7-12.46a56.55,56.55,0,0,1-3.76-9.55,54.74,54.74,0,0,1-1.67-8.36,42,42,0,0,1,.32-12.83c.19-1-1.31-1.39-1.5-.41-.07.36-.12.72-.18,1.08-3.52-.19-7-.39-10.56-.62-6-.38-12-.81-18-1.33l-3.3-.32c-6-.55-12-1.18-18-1.93-1-.12-1,1.43,0,1.55,5.94.75,11.9,1.37,17.86,1.91,7.09.64,14.19,1.15,21.3,1.59,3.5.22,7,.42,10.49.61a46.37,46.37,0,0,0,0,11,54,54,0,0,0,5.46,18.07c2.14,4.4,4.67,8.64,7.13,12.8.26.42.52.85.79,1.27q-7,.24-14,.45c-6.48.2-13,.37-19.44.43-3.32,0-6.64.05-10,.08q-12,.08-24,.11l-20,0q-10.89,0-21.79.05h-4.26c-1.37-2.67-1.54-6.22-1.85-9.12-.36-3.34-.58-6.7-.76-10.06,0-1.06-.11-2.13-.15-3.19-.29-6.24-.44-12.45-.36-18.68,0-1.7,0-3.4.11-5.11.14-4.16.31-8.33.71-12.48a122.18,122.18,0,0,0,17.7,2.15,190.67,190.67,0,0,0,22.67-.34c6.94-.47,13.89-1.2,20.82-2,7.19-.81,14.37-1.66,21.51-2.31l4.32-.36c6.8-.54,13.61-.9,20.43-.91a22.6,22.6,0,0,1,7.34,0,11.81,11.81,0,0,1,2.45.77,12.29,12.29,0,0,1,5.08,4.48,47.34,47.34,0,0,1,3.88,6.87c.85,1.87,1.67,3.77,2.46,5.67,1.8,4.3,3.47,8.67,5.16,13q1.26,3.26,2.5,6.52,3.85,10,7.59,20.07,3.16,8.55,6.21,17.12a.7.7,0,0,0,.08.2c.25.72.52,1.44.77,2.17,1.27,3.56,2.54,7.13,3.78,10.7,1,2.93,2.08,5.88,3.09,8.84,1.26,3.67,2.44,7.37,3.38,11.11-.76.47-1.48,1-2.08,1.33q-2.25,1.31-4.47,2.66t-4.14,2.58q-3.92-6.27-7.77-12.57h0c-3.09-5-6.17-10.05-9.29-15.05Zm3.79,22.38-.84-10.21-.42-5.18q4.14,6.68,8.25,13.38,3.88,6.32,7.79,12.61l-1.14.74a1.06,1.06,0,0,0-.15.15.63.63,0,0,0-.13.91l.75,1c0,2.27-.1,4.53-.23,6.79-.11,2-.35,4.72-.45,6.81l-2.85-.09c-1.19,0-2.38-.05-3.57-.07-1.67,0-3.34-.05-5-.05a.49.49,0,0,0,0-.21l-.18-2.64h0a3.91,3.91,0,0,0,0-1.23c-.09-1.34-.18-2.68-.28-4s-.22-2.82-.33-4.23c-.08-1-.15-2-.23-2.95Zm25.48,65.75-7.37.14c0,.14,0,.29,0,.43h0v0L277,395h-9.09c0-.12,0-.27,0-.39l-2.93-.1a15.38,15.38,0,0,1-3,0c-1.66-.43-1.39-3.27-1.34-4.59.05-1,.16-2.08.28-3.12.21-1.7.45-3.4.55-5.11.14-2.47.14-4.94.08-7.42,0-.39,0-.78,0-1.16-.13-4.11-.36-8.21-.6-12.3-.07-1.23-.14-2.46-.2-3.69,2.63-.05,5.27,0,7.91,0l1.75,0q2.61.06,5.22.18a14.62,14.62,0,0,1,2.48.12,1.59,1.59,0,0,1,.54.24c.83.56.29,1.77.07,2.7-.78,3.28-1.6,6.56-2.42,9.84-.94,3.72-1.9,7.42-2.89,11.13-.38,1.43-.74,2.87-1.13,4.31a.76.76,0,0,0,.54.95,61.85,61.85,0,0,1,7.38,1.38c3.19.92,6,2.49,6.74,5.56h0A6.36,6.36,0,0,1,287.18,394.47ZM547.47,89.27a.31.31,0,0,1,.35-.09l1.12,1.61.52.75c.19.28,1.27,1.82.82,1.94a.38.38,0,0,1-.25,0c-.53-.17-1.38-1.59-1.7-2l-.16-.22a5.06,5.06,0,0,1-.5-.74A1.21,1.21,0,0,1,547.47,89.27Zm-3.4,34.78c-.07.88-.13,1.84-.29,2.78a6.4,6.4,0,0,1-1.48,3.46c-1.66,1.74-4.56,1.66-6.78,1.88l-1.32.15a28.15,28.15,0,0,1-5.86.31,5.69,5.69,0,0,1-4.88-3,6.29,6.29,0,0,1-.39-.95,38.39,38.39,0,0,1-1.4-7c-.18-1.51-.29-3-.35-4.53a80,80,0,0,1,.17-9,4.88,4.88,0,0,0,2.63-.19c1.78-.53,3.59-1.38,5.41-1.87a9.89,9.89,0,0,1,1.31-.29,12.45,12.45,0,0,1,7.78,1.22,3.61,3.61,0,0,1,.85.75c1.53,1.8,1.38,5,1.62,7.14a.9.9,0,0,0,.24.51.67.67,0,0,0,.74.24l1.59-.48a5.1,5.1,0,0,0,.58,2.56A62.09,62.09,0,0,1,544.07,124.05Zm7.17-19.45c.07,2.64.29,6-1,8.42a7.71,7.71,0,0,1-.94,1.32,14.56,14.56,0,0,1-1.61,1.53c-.37.3-1.43,1.42-2,1.18,0,0,0,0-.07-.06a.71.71,0,0,0-.15-.15,5.47,5.47,0,0,1-.21-2.61.79.79,0,0,0-1-1l-1.38.41-.37.11c-.17-2.1-.26-4.44-1.26-6.26a4.75,4.75,0,0,0-1.15-1.39,8.91,8.91,0,0,0-4.08-1.71,14.54,14.54,0,0,0-6.43,0,6.36,6.36,0,0,0-.71.21c-1.31.45-2.61.91-3.94,1.35-.74.24-2.25,1-3.14.63a1,1,0,0,1-.43-.31,11.68,11.68,0,0,1,.94-6.67,14.64,14.64,0,0,1,7.51-7.14,20.1,20.1,0,0,1,4.25-1.3,43.28,43.28,0,0,1,12-.21,6.57,6.57,0,0,0,.65,1.06,26,26,0,0,0,1.71,2,4.32,4.32,0,0,0,1.23,1.07,70,70,0,0,1,1.47,8C551.19,103.57,551.22,104.08,551.24,104.6ZM556.7,100a14.77,14.77,0,0,0-4.72-7,3.94,3.94,0,0,0-.62-1.35c-.34-.52-.69-1-1.05-1.53l-.19-.28a9.23,9.23,0,0,1,7.25.13A13.63,13.63,0,0,1,560,91.24a11.36,11.36,0,0,1,4.5,7,34.13,34.13,0,0,1,.83,6.23,36.36,36.36,0,0,1-.22,6.35c-.45,3.77-1.35,7.49-2.15,11.22-.3,1.4-.59,2.8-.84,4.2-.43,2.47-.75,4.95-1,7.43s-.34,4.73-.37,7.1c-.4-.17-.81-.32-1.21-.48A71.9,71.9,0,0,1,558.24,129c-.23-4.94-.14-9.92-.12-14.82v0C558.13,109.54,558.17,104.41,556.7,100ZM484,195.9c1.09-.5,2.25-.84,3.31-1.37a8.11,8.11,0,0,0,.94-.57,16.53,16.53,0,0,0,2-1.73,128.44,128.44,0,0,0,9.56-10.38c3.82-4.6,7.39-9.41,10.85-14.31,3-4.2,5.86-8.45,8.77-12.68.81-1.18,1.62-2.36,2.44-3.53l.3-.43c-1.73,3-3.47,6-5.14,9s-3.28,6.11-4.76,9.24c-.62,1.33-1.21,2.67-1.76,4h0c-.06.13-.11.25-.16.38-.6,1.47-1.42,3.15-1.25,4.78s1.59,2.6,2.79,3.6l2.81,2.32c-3.21,2.2-6.43,4.41-9.6,6.7-2.45,1.76-4.88,3.57-7.23,5.46-1.71,1.37-3.33,2.85-5.06,4.19h0c-1.59,1.23-3.66,1.49-5.59,1.84-3.38.62-6.81,1.07-10.18,1.79-.07-.16-.14-.31-.2-.46-.39-.87-.77-1.74-1.15-2.6A48.38,48.38,0,0,1,484,195.9Zm7.31,23.59q6.56.18,13.1.46c2.38.1,4.75.22,7.13.35l-.06.8-.18,2.7q-5.26-.09-10.54-.15l-15-.17c-.64-1.39-1.27-2.77-1.9-4.16C486.37,219.37,488.86,219.42,491.34,219.49Zm-7.27,4-5.1-.06-1.5,0-23.74-.32q-10.55-.13-21.11-.31l-4.58-.07c-1.42-3-2.82-6.06-4.23-9.1q-2.67-5.79-5.3-11.59-2.53-5.58-5-11.17-2.18-4.89-4.34-9.79h.09l12.37.17,11,.15,16.79.22,7.19.09,8.95.13h0q2.09,4.88,4.21,9.73,2.76,6.34,5.58,12.68c1,2.29,2.05,4.57,3.08,6.86a.8.8,0,0,0,.11.25c.73,1.61,1.45,3.23,2.18,4.85Q482.39,219.81,484.07,223.46Zm11.29-11c0,.14,0,.28,0,.42a28,28,0,0,1-4,0l-.48,0c-1.07.13-2.09.27-3.12.33.24-.26.48-.53.71-.8a.78.78,0,0,0-.43-1.3.91.91,0,0,0-.33,0,48,48,0,0,0-6.75,1.79l-.75-1.68a23.43,23.43,0,0,1,5.87-3.36c3.28-1.21,6.75-1.33,9.22,1.48,0,.1,0,.2,0,.29C495.37,210.55,495.38,211.5,495.36,212.44Zm1.14-4.13c-2.84-3.39-6.9-3.35-10.71-2a25.42,25.42,0,0,0-6.23,3.42c-.61-1.35-1.23-2.71-1.83-4.07,3.36-.71,6.77-1.16,10.15-1.78a15.33,15.33,0,0,0,5.07-1.46c.33-.2.65-.44,1-.67,1.36-1,2.59-2.23,3.87-3.28,2.72-2.23,5.54-4.34,8.4-6.4,3.23-2.32,6.52-4.57,9.8-6.82l1.52,1.26.13.11c1.17,1,2.49,1.88,3,3.36a22.29,22.29,0,0,1,.81,3.62c.36,2,.66,4.07.94,6.11s.56,4.12.88,6.17c0,.08,0,.15,0,.23l-.19.08a4.42,4.42,0,0,1-.52.14c-3,.53-6.08.8-9.11,1.1-.9.09-1.81.16-2.71.24q-7.08.6-14.2.72Zm28.38,4.91c-2.12,0-4.25,0-6.38,0-2.69-.11-5.38-.28-8.07-.43a105.16,105.16,0,0,0-13.52-.07c0-.91,0-1.82,0-2.72q7.06-.14,14.09-.73c1.45-.12,2.89-.26,4.33-.41a67.77,67.77,0,0,0,8.06-1,5.22,5.22,0,0,0,.56-.18,8.9,8.9,0,0,0,3.3-2.65.33.33,0,0,0,.06-.1l.06-.05c2-2.76,3.82-5.63,5.68-8.47l1.29-2L541.92,183c.27-.4.54-.8.8-1.21l8.94-13.37,7.89-11.8c.55-.83-.79-1.61-1.34-.78q-3.87,5.76-7.72,11.54L541.38,181l-.63.95-7.61,11.38-1.29,2c-1.89,2.89-3.75,5.82-5.78,8.62a18.24,18.24,0,0,1-1.3,1.33q-.45-2.94-.87-5.88c-.1-.64-.2-1.28-.28-1.92a42,42,0,0,0-1.53-8,7.33,7.33,0,0,0-2.45-3.12l-1.12-.93-4.35-3.61c-.85-.71-1.82-1.38-2.6-2.17a2.69,2.69,0,0,1-.62-3.14c.32-1,.71-2,1.12-3,.28-.66.58-1.32.87-2,1.65-3.68,3.51-7.25,5.47-10.78,1.48-2.68,3-5.33,4.53-8l2.55-4.39c1-1.7,1.94-3.4,2.87-5.12.4-.74.8-1.49,1.19-2.25h0c.1-.2.21-.39.32-.6a18.92,18.92,0,0,0,.43,3.15.78.78,0,0,0,1.14.46l.54-.29a47.6,47.6,0,0,0,11.41-8.44l.06,0a29.11,29.11,0,0,0,7.95,3.65c1.55.42,3,1.11,4.48,1.68l1.52.56a40.76,40.76,0,0,1,5.68,2.46,20.62,20.62,0,0,1,6.48,5.61c3.16,4.1,4.87,9.24,6,14.58.12.57.23,1.15.35,1.72a113.08,113.08,0,0,1,2.17,17.39,71.59,71.59,0,0,1-.46,11.52c-.19,1.47-.45,2.93-.76,4.37a75.49,75.49,0,0,1-3.07,10.33c-.52,1.4-1,2.8-1.57,4.21a68.47,68.47,0,0,0-3.07,10,35.08,35.08,0,0,0-.74,5.75,23.93,23.93,0,0,0,1.39,9.43,82.77,82.77,0,0,0-12.47,1.09,71.75,71.75,0,0,1-12.76,1,26.6,26.6,0,0,1-7.38-1.39c-1.21-.39-2.4-.85-3.63-1.36a15.59,15.59,0,0,0-7.9-1.26,36.37,36.37,0,0,0,1.38-8.69,73.81,73.81,0,0,0-.87-13.17c1.17,0,2.34-.08,3.5-.16,2.23-.15,5.07-.2,7-1.54l1.05-.69q6.94-4.51,13.71-9.23l-.77-1.35q-6.63,4.62-13.43,9.05l-1.35.88c-1.94,1.37-5,1.27-7.31,1.39C527.33,213.15,526.11,213.19,524.88,213.22Zm-74.71,93.89.06-4.87q.06-6.25.08-12.5c0-.21,0-.41,0-.62a128.94,128.94,0,0,1,.36-14.58,33,33,0,0,1,.94-5.12,14.91,14.91,0,0,1,5.85-8.83c2.14-1.22,4.84-1.52,7.24-1.79,1-.11,2-.2,3-.27,2-.14,4.8-.27,6.82-.36-.17.45-.34.91-.52,1.36-.71,1.85-1.41,3.71-2.12,5.57q-3.78,10-7.45,20-1.32,3.63-2.63,7.24-2.58,7.08-5.1,14.16-3.39,9.48-6.71,19Q450.07,316.32,450.17,307.11Zm.69,40.53,0,.06-.81,1.42q-3.56,6.27-7.11,12.52l-.93,1.64c-.58.91-1.55,1.87-2.75,1.54-.94-.26-1.32-1.26-1.66-2.06-.73-1.73-1.42-3.47-2.13-5.21l-.06-.14c-1.13-2.79-2.27-5.59-3.38-8.39-.29-.74-.6-1.48-.89-2.23a8.54,8.54,0,0,1-.73-2.17c0-.32-.17-1,.26-1.21.24-.1,1,.31,1.22.43a6.34,6.34,0,0,1,1.46,1.06,18.15,18.15,0,0,1,1.83,2c1.93,2.38,4.05,4.57,6,6.92a.62.62,0,0,0,.75.19l.09,0a.67.67,0,0,0,.46-.51c.82-3.39,1.87-6.75,3-10.08,1.21-3.61,2.52-7.19,3.75-10.76.53-1.56,1.09-3.11,1.63-4.67q2.15-6.19,4.34-12.38,2.41,1.64,4.94,3c1.87,1.05,3.79,2,5.73,2.94l-2.28,3.92a.46.46,0,0,0-.09.15c-.44.75-.88,1.5-1.31,2.25q-5,8.61-9.88,17.25Zm1.46.55,1.23-2.18q4.89-8.64,9.82-17.23c-.1,6.15-.53,12.3-1,18.45l-.21,2.68c-1.83,0-3.66,0-5.48,0-1.45,0-2.89-.07-4.33-.14C452.34,349.24,452.32,348.71,452.32,348.19Zm7.14,46.67c-2.92,0-5.83,0-8.75,0h-.34q-2.08,0-4.17-.12a22.66,22.66,0,0,1-4.95-.37l-.29-.06h0c-.27,0-.29,0,.1-.5a6.47,6.47,0,0,1,1-.85,12.87,12.87,0,0,1,1.75-1.05,25.05,25.05,0,0,1,4.13-1.56c1.6-.49,3.24-.9,4.88-1.26l.49-.11a.79.79,0,0,0,.57-.75q-.44-6.11-.74-12.23c-.2-3.79-.36-7.57-.48-11.36q-.24-6.66-.32-13.31c1.4.06,2.79.1,4.19.13,1.82,0,3.64,0,5.47,0-.24,3-.48,6.08-.66,9.12-.05.68-.08,1.37-.12,2.06-.32,5.57-.6,11.14-.88,16.72C460.1,384.53,459.82,389.7,459.46,394.86ZM572.77,290.41l-9.65,0-26.41-.12L510,290.14l-3.76-.05c-6.52-.11-13-.36-19.56,0,.16-.31.33-.61.48-.92s.48-.92.71-1.39c3-5.65,6.14-11.59,8.05-17.78a37.51,37.51,0,0,0,1.82-13c2.35-.14,12.06-.75,18.42-1.32s12.89-1.25,19.31-2.07l1.24-.16a128,128,0,0,0,15.84-2.67.77.77,0,0,0-.41-1.49,130.58,130.58,0,0,1-15.48,2.61h0q-10.23,1.32-20.52,2.25H516c-8.08.71-10.6.92-18.39,1.34a28.63,28.63,0,0,0-.59-3.75c-.23-1-1.72-.57-1.5.41a32.9,32.9,0,0,1-1.11,17.51c-1.88,6-4.94,11.84-7.89,17.31-.22.44-.43.87-.65,1.3a72.89,72.89,0,0,1-4.73,8.27c-1.17,1.7-2.28,3.43-3.39,5.16q-2.1,3.35-4.15,6.73l1.28.88c1.07-1.75,2.13-3.5,3.22-5.23,1.29-2.08,2.61-4.15,4-6.17s2.6-4.12,3.75-6.25c6.79-.38,13.6-.08,20.39,0h1c8.14.09,16.28.08,24.42.12l4.93,0,8,0q-.13,6.57-.23,13.15-.2,11.47-.32,23-.14,12.72-.28,25.44h0c-.08,6.65-.16,13.3-.28,20,0,.84,0,1.69,0,2.53q-.16,9.54-.42,19.09H461c.37-5.22.65-10.44.92-15.66.29-5.58.56-11.15.89-16.72,0-.68.07-1.36.11-2,.27-4.46.64-8.91,1-13.37.55-7,1.06-14.11,1.05-21.17l2.62-4.49,0,0q3.6-6.13,7.3-12.22l-1.28-.88q-2.31,3.81-4.58,7.66c-.82,1.38-1.61,2.77-2.42,4.15-2-.93-3.93-1.92-5.83-3-1.73-1-3.44-2-5.09-3.15.82-2.33,1.64-4.65,2.47-7,1.12-3.11,2.22-6.22,3.35-9.33,1.45-4,2.92-8,4.39-12.06q3.68-10.05,7.45-20.06l.75-2c1.52-4,3.06-8,4.66-12,.67-1.66,1.32-3.36,2.11-5,.18-.36.35-.72.54-1.06,1.26-2.29,2.56-4.8,4.61-6.48,2.31-1.88,5.21-2.26,8.09-2.11a35.07,35.07,0,0,1,3.6.4c6,.95,12.29,2.84,18.49,2.85a24,24,0,0,0,6.23-.74,4.78,4.78,0,0,0,2.63-1.31c3.46-.52,6.24.34,9.41,1.7a28.81,28.81,0,0,0,10.65,2.24,74.26,74.26,0,0,0,12-1,78.83,78.83,0,0,1,13.45-1.1,27.35,27.35,0,0,0,1.9,2.49,17,17,0,0,1,2.87,6,34,34,0,0,1,1.34,8.34c.1,2.14.06,4.3-.05,6.45-.22,4.22-.52,8.44-.81,12.65l.77.11-.77-.11c0,.72-.09,1.43-.14,2.15-.16,2.43-.25,4.88-.48,7.3C575.05,287.36,574.45,289.35,572.77,290.41Z"></path><path className="path" fill="#FFFFFF" stroke="#000000" stroke-width="2" stroke-miterlimit="10" d="M285.13,355.4c.87,1.29,1.71,2.61,2.53,3.94h0q1,1.65,2,3.36c1.24,2.29,2.29,4.71,3.7,6.92a12.42,12.42,0,0,0,3.13,3.77c0-.72,0-1.41,0-2.08a14.89,14.89,0,0,1-1.52-2,29.76,29.76,0,0,1-1.68-2.89c-1.37-2.59-2.75-5.13-4.23-7.63h0c-1.06-1.8-2.16-3.58-3.36-5.32s-2.39-3.44-3.6-5.15l-1.43.64C282.15,351.07,283.66,353.22,285.13,355.4Z"></path><path className="path" fill="#FFFFFF" stroke="#000000" stroke-width="2" stroke-miterlimit="10" d="M533.42,124.68a1,1,0,0,1-.54.56,1,1,0,0,1-.83,0c-.9-.44-1.69.9-.79,1.34a2.65,2.65,0,0,0,2.3,0,2.6,2.6,0,0,0,1.36-1.52C535.24,124.14,533.74,123.73,533.42,124.68Z"></path><path className="path" fill="#FFFFFF" stroke="#000000" stroke-width="2" stroke-miterlimit="10" d="M198.55,97.47a.78.78,0,0,0-.41-1.5,1.18,1.18,0,0,1-1.27-.41,1.17,1.17,0,0,1-.22-1,.78.78,0,0,0-1.5-.41,2.75,2.75,0,0,0,.42,2.24A2.72,2.72,0,0,0,198.55,97.47Z"></path><path className="path" fill="#FFFFFF" stroke="#000000" stroke-width="2" stroke-miterlimit="10" d="M205,94.38c1.84.37,5,1.72,6-.62a11,11,0,0,0,.43-3.89l0-.28c.08-1.86.17-3.71.26-5.57.05-1-1.51-1-1.55,0-.09,1.74-.17,3.47-.25,5.21,0,.52-.05,1-.07,1.57-.05,1.07.19,2.59-1.3,2.7a12.92,12.92,0,0,1-3.1-.62C204.39,92.68,204,94.18,205,94.38Z"></path><path className="path" fill="#FFFFFF" stroke="#000000" stroke-width="2" stroke-miterlimit="10" d="M527,121.63l-1.48.38a6.9,6.9,0,0,1-.93.26,4.38,4.38,0,0,1,.18-1c.11-.42.25-.82.3-1,.2-.79.44-1.55.71-2.31.34-.94-1.16-1.35-1.5-.42a25.52,25.52,0,0,0-.89,3.1,11.38,11.38,0,0,0-.31,1.62,2.14,2.14,0,0,0,0,.84c.53,1.65,3.21.37,4.28.09A.78.78,0,0,0,527,121.63Z"></path><path className="path" fill="#FFFFFF" stroke="#000000" stroke-width="2" stroke-miterlimit="10" d="M574.82,186c.78-.6,0-2-.78-1.34q-5,3.84-10.11,7.59-6.58,4.86-13.29,9.55l.77,1.35q6.71-4.68,13.29-9.55Q569.79,189.81,574.82,186Z"></path><path className="path" fill="#FFFFFF" stroke="#000000" stroke-width="2" stroke-miterlimit="10" d="M531.56,112.91a.8.8,0,0,0,.27-1.11,1.88,1.88,0,0,0-.22-.26.9.9,0,0,0-.14-.2.18.18,0,0,0-.05-.07c-.06-.07,0,0,0,0a.77.77,0,0,0-1.34.74,2.71,2.71,0,0,0,.49.8A1,1,0,0,0,531.56,112.91Z"></path><path className="path" fill="#FFFFFF" stroke="#000000" stroke-width="2" stroke-miterlimit="10" d="M523.17,112.39a1.38,1.38,0,0,0-.22-.26l-.13-.2-.06-.06c-.06-.08,0,0,0,0a.78.78,0,0,0-1-.26,1,1,0,0,0-.16,1.3.69.69,0,0,0,.36.49,1,1,0,0,0,1,.07A.79.79,0,0,0,523.17,112.39Z"></path><path className="path" fill="#FFFFFF" stroke="#000000" stroke-width="2" stroke-miterlimit="10" d="M214.15,82.34h0a1.29,1.29,0,0,0,.57.43.89.89,0,0,0,1.19-.66,1.39,1.39,0,0,0,0-.73.63.63,0,0,0,.1-.2.8.8,0,0,0-.54-1,1.41,1.41,0,0,0-.84.09.9.9,0,0,0-.8.58,1.29,1.29,0,0,0,.06,1.1A1.23,1.23,0,0,0,214.15,82.34Z"></path><path className="path" fill="#FFFFFF" stroke="#000000" stroke-width="2" stroke-miterlimit="10" d="M200.94,80.53l0,0a1.2,1.2,0,0,0,.57.42.9.9,0,0,0,1.19-.65,1.43,1.43,0,0,0,0-.74.69.69,0,0,0,.1-.19.79.79,0,0,0-.54-1,1.27,1.27,0,0,0-.84.09.89.89,0,0,0-.8.58,1.29,1.29,0,0,0,.06,1.1A1.19,1.19,0,0,0,200.94,80.53Z"></path></svg>
