<svg id="hands" "svg-animate" xmlns="http://www.w3.org/2000/svg" viewBox="0 0 700 450">
  <defs>
    <style>
      @keyframes dash {
      	from {
      		stroke-dashoffset: 5000;
      	}
      	to {
      		stroke-dashoffset: 0;
      	}
      }
      .path {
      	stroke-dasharray: 5000;
      	stroke-dashoffset: 5000;

        animation: dash 1.5s cubic-bezier(0.1, 0.29, 1, 0.1) alternate 2;
      	will-change: stroke-dashoffset;
      }
    </style>
  </defs>
<path className="path watch-path" fill="#FFFFFF" stroke="#000000" stroke-width="2" stroke-miterlimit="10" d="M434.34,199.42l-12.53-1.55-14.67-1.82-11.45-1.41c-1-.13-1,1.43,0,1.55l11.3,1.4,14.67,1.82L434.34,201C435.33,201.1,435.32,199.54,434.34,199.42Z"></path><path className="path" fill="#FFFFFF" stroke="#000000" stroke-width="2" stroke-miterlimit="10" d="M417.09,183.89c4.11.55,8.22,1.14,12.33,1.71,1,.14,1.4-1.35.41-1.49-4.2-.59-8.39-1.19-12.59-1.76s-8.35-1.1-12.54-1.58c-1-.11-1,1.44,0,1.56C408.84,182.8,413,183.33,417.09,183.89Z"></path><path className="path" fill="#FFFFFF" stroke="#000000" stroke-width="2" stroke-miterlimit="10" d="M409.18,154.61q5.26.4,10.51.84c4.89.4,9.77.82,14.65,1.29,1,.1,1-1.45,0-1.55q-7.24-.7-14.5-1.28c-3.55-.3-7.11-.58-10.66-.85C408.18,153,408.19,154.53,409.18,154.61Z"></path><path className="path" fill="#FFFFFF" stroke="#000000" stroke-width="2" stroke-miterlimit="10" d="M619.1,191.41q-1.47-10.69-3.61-21.27-1.61-7.84-3.6-15.6-3.35-13-7.81-25.65A287.79,287.79,0,0,0,592.55,101c-.25-.55-.51-1.09-.77-1.63a196.33,196.33,0,0,0-12.81-23,110.13,110.13,0,0,0-6.51-8.89,49.3,49.3,0,0,0-8.78-8.47c-5.1-3.73-11-6.1-17.58-5.42a23.31,23.31,0,0,0-9.81,3.4c-5.33,3.24-9.6,8.35-12.72,13.72a77.48,77.48,0,0,0-5.93,13,114.9,114.9,0,0,0-5.25,21.83q-.56,3.87-.91,7.75a279.51,279.51,0,0,0-.87,29.38c.1,9.63.36,19.27.11,28.89-.08,3-.2,6-.4,9a162.4,162.4,0,0,1-2.13,17.88,28.83,28.83,0,0,1-2-2.38c-3.25-4.22-5.52-9.3-7.63-14.06-1.07-2.43-2.11-4.88-3.21-7.3a68.49,68.49,0,0,0-6.53-11.87,41.86,41.86,0,0,0-5.89-6.56,92.57,92.57,0,0,0-10.74-8.2l-.53-.36c.8-4.83,1.67-9.65,2.32-14.5,0-.21.06-.42.08-.63.55-4.66.38-10-3.06-13.55a12.71,12.71,0,0,0-7.32-3.35c-1.85-.3-3.73-.49-5.61-.67-1.55-.14-3.11-.27-4.66-.43l-18.87-1.88-3.51-.35-20-2-2.4-.24L397.29,109l-5.22-.52a24.46,24.46,0,0,0-5.05-.32,5.2,5.2,0,0,0-1,.26c-1.76.66-2.55,2.35-3,4.26-.8,3.34-1.53,6.7-2.24,10.06s-1.34,6.52-2,9.8c-.5,2.69-1,5.39-1.42,8.09-.64,3.93-1.18,7.86-1.69,11.8q-.72,5.51-1.31,11c-6.38,0-12.72-.37-19.09-.57l-1.6,0c-3.88-.1-7.77-.11-11.65,0a69.06,69.06,0,0,0-7.44.6c-.31,0-.62.08-.93.14a28.39,28.39,0,0,0-3,.67,12.67,12.67,0,0,0-6.63,4,7.25,7.25,0,0,0-1.55,3.28A3.38,3.38,0,0,0,324,175c2.69,1.81,6.59,1.65,9.88,1.68h.54l.91,0,10.86.48,2.75.14q6.79.34,13.59.78c3.36.21,6.73.43,10.09.66l.13,0-.57,5.56-.08,0c-4.36,0-8.7-.17-13-.34-2.06-.08-4.13-.16-6.2-.22-3.19-.1-6.38-.14-9.57-.09-1.23,0-2.45,0-3.68.08a52.62,52.62,0,0,0-10.08,1.09c-.44.1-.87.2-1.3.33a12.58,12.58,0,0,0-6.62,4,7.37,7.37,0,0,0-1.55,3.24l-1,.08a33.72,33.72,0,0,1-3.76.1c-.2,0-.52-.1-.8-.14l.22-.2a1.62,1.62,0,0,1,.22-.19,6.1,6.1,0,0,0,2.41-7.7,11.33,11.33,0,0,0-4.1-5.15,14,14,0,0,0-4.42-2.14,16.53,16.53,0,0,0-6.06-.44,4.48,4.48,0,0,0,.11-.62c.52-3.68-2.16-6.95-5.26-9-.28-.19-.58-.34-.87-.52a21.36,21.36,0,0,0-15-2.48h-.08c0-3.92-2.89-6-6.48-6.91a30.1,30.1,0,0,0-10.52-.5c-1,.13-2.05.3-3.07.48-4.69.85-9.34,2.21-13.95,3.29q-6.24,1.46-12.45,3c-.51.12-1,.23-1.52.36-6.53,1.59-13,3.26-19.51,5.12l-3.39,1c-2.58.76-5.14,1.53-7.72,2.27-.43-7.78-1.18-15.54-2.32-23.22a195.65,195.65,0,0,0-7.14-31.07q-2.32-7.23-5.31-14.28c-2-4.69-4.22-9.36-6.65-13.92a126.36,126.36,0,0,0-11.4-17.91,57.59,57.59,0,0,0-8.75-9.18c-5.63-4.68-12.24-8-19.74-8.82a27.66,27.66,0,0,0-17.46,3.91c-8.58,5.12-15.07,14.41-20,24a165.39,165.39,0,0,0-7,15.81c-1.92,4.88-3.61,9.84-5.16,14.85-2.27,7.32-4.23,14.75-6,22.2-1,4-1.91,8.06-2.76,12.09-1.41,6.68-2.59,13.38-3.35,20.21-.56,5.09-1,10.2-1.35,15.31-.86,12.51-1.09,25.05-.92,37.59q.09,6.74.32,13.46.42,12.27,1.34,24.53c.89,11.78,2.18,23.51,4,35.17q1,6.24,2.17,12.46,2,10.51,4.77,20.86a294.62,294.62,0,0,0,9.55,29.68c1.65,4.31,3.39,8.59,5.26,12.82,2.45,5.56,5.17,11.14,8.87,15.89a32.65,32.65,0,0,0,10.66,9.12c9.13,4.78,19.94,3.28,28.67-1.66.5-.29,1-.58,1.5-.89,8.53-5.37,14.31-13.87,18.86-22.73q1.2-2.34,2.29-4.68,5.36-11.46,10-23.26,1.54-3.9,3-7.83,2.94-7.94,5.41-16Q198,304.41,200.59,292a234.7,234.7,0,0,0,4.09-28.46.49.49,0,0,1,0-.12q.74-9.27.75-18.58c1.42-.25,2.84-.49,4.26-.7,1.81-.27,3.62-.51,5.44-.7a103.87,103.87,0,0,1,13.54-.64,78,78,0,0,1,8.54.68,134.31,134.31,0,0,1,17.25,3.63l6.66,1.83c4.18,1.15,8.4,2.26,12.66,3.16a85.19,85.19,0,0,0,13.6,1.87A51.12,51.12,0,0,0,302,252.67l.2-.06c4.13-1,8.18-2.31,12.2-3.68,7.32-2.49,14.58-5.21,22.1-7a3,3,0,0,0,2.08,1.57,25.71,25.71,0,0,0,4.64.47l4,.28,1.8.13,8.16.55,9,.62c-.22,2.2-.46,4.4-.7,6.6-.16,1.4-.39,2.82-.62,4.26-.58,3.59-1.16,7.24-.54,10.78.9,5.09,5.71,7.24,10.34,8l.51.07c6.58,1.06,13.34,1.37,20,2l.48,0,17,1.63,5,.48,18.51,1.76,3.73.36c2.27.21,4.76.46,6.95-.32a5.45,5.45,0,0,0,3.32-3.64,24.56,24.56,0,0,0,1.1-6,56,56,0,0,0,13.5.55c3.23.35,6.48.61,9.73.74a108.74,108.74,0,0,0,15.53-.43c1.46-.15,2.91-.33,4.36-.55,4.46-.67,8.85-1.81,13.27-2.8.59,5.41,1.16,10.84,1.76,16.25.59,5.25,1.2,10.5,1.89,15.73.57,4.36,1.22,8.72,2,13.05.61,3.29,1.3,6.57,2.13,9.81a146.4,146.4,0,0,0,7.31,21.05c.35.82.71,1.63,1.07,2.45A130.29,130.29,0,0,0,536.18,370a65.81,65.81,0,0,0,9.88,11.44,35.79,35.79,0,0,0,12.39,7.36,26.18,26.18,0,0,0,17.06.13,51.66,51.66,0,0,0,13.86-6.76,36.31,36.31,0,0,0,3.7-3c6.79-6.3,10.9-14.79,13.83-23.63.77-2.31,1.45-4.64,2.1-7,2.72-9.84,4.56-20,6.34-30q.72-4.06,1.37-8.15c2.32-14.45,4-29,4.89-43.61.47-7.51.76-15,.82-22.54q.08-10.25-.39-20.5C621.53,213,620.57,202.14,619.1,191.41ZM377.18,152.52c.1-.77.19-1.55.29-2.32q1.18-8.61,2.79-17.16,1.42-7.72,3.15-15.38c.36-1.61.71-3.22,1.1-4.82.35-1.42.86-2.65,2.21-3.06a3.33,3.33,0,0,1,.75-.14,28.33,28.33,0,0,1,4.6.35l5.22.53L411,111.89l7.09.71,16.08,1.61,23.51,2.35,2.11.21c3,.3,6.27.53,8.83,2.3a10.12,10.12,0,0,1,3.88,6.93,23.75,23.75,0,0,1,0,6.47c-.27,2.43-.76,4.85-1.15,7.2s-.79,4.71-1.17,7.07c-1.64-1.12-3.28-2.24-4.92-3.38l-6.2-4.31c-.91-.63-1.82-1.26-2.72-1.9.23-1.62.47-3.23.71-4.85.13-.86.26-1.73.4-2.59a.8.8,0,0,0-.2-.67l-.08-.07-.1-.09a.74.74,0,0,0-.37-.16q-7.86-1-15.75-1.88A100.18,100.18,0,0,0,432.1,122l-1.36-.66c-2-1-4.46-2-6.41-1.28-1.26.43-1.69,1.68-1.89,2.89a8.11,8.11,0,0,0,0,2.2c-6.6-.54-13.24-1-19.82-.9a17.37,17.37,0,0,0-2.28.18,7.85,7.85,0,0,0-4.4,2c-2.32,2.25-3.07,6-3.71,9-.53,2.55-.89,5.14-1.19,7.74-.16,1.36-.31,2.73-.46,4.1-.45,4.18-1.08,8.33-1.69,12.49-.24,1.68-.47,3.35-.7,5q-1.47,10.53-2.71,21.09c-.56,4.74-1.09,9.5-1.57,14.25l-6.25-3.49c-1.63-.92-3.22-1.9-4.83-2.84q.63-6.17,1.25-12.33c.14-1.41.29-2.83.43-4.25C375.28,169,376.11,160.73,377.18,152.52ZM455,136.15c-2.35-1.64-4.7-3.28-7.08-4.88Q446,130,444,128.7q6,.68,11.89,1.46C455.56,132.16,455.27,134.16,455,136.15Zm-5.81,41.13q-1.7,12.08-3.4,24.15t-3.49,24.33c-.25,1.68-.48,3.37-.73,5.05-.75,5.12-1.51,10.24-2.31,15.35-.26,1.68-.51,3.36-.79,5-.44,2.74-.61,6.9-2.57,8.89-1.56,1.58-4.19.94-6.16.77l-1.5-.13-5.55-.48-13.51-1.17-2.69-.24-11.12-1-6.13-.53c-1.59-.14-4.3,0-6-.75a3.17,3.17,0,0,1-.9-.58c-1.32-1.29-.68-4.09-.61-5.75s.18-3.6.28-5.4c0-.65.06-1.3.1-2,.21-3.82.46-7.65.72-11.47l.12-2q.45-6.41,1-12.8c2.52,1,5,2,7.58,3l1.34.49a28.59,28.59,0,0,0,8.67,1.8c.24,0,.48,0,.72,0a9.92,9.92,0,0,0-1,2.2,10.32,10.32,0,0,0,4.31,12.12,9.75,9.75,0,0,0,1.45.71,10.13,10.13,0,0,0,11.56-3.22,10.91,10.91,0,0,0,1.38-2.2c2.14-4.59,1.28-10.78-3.69-12.56a9.13,9.13,0,0,0-1.37-.37c-3.12-.52-6,.62-9,1.32,2.45-4-3.37-8.48-6.37-10.33l-.84-.52c-3.33-2.07-6.64-4.15-10-6.18-1.09-.66-2.19-1.29-3.29-1.92q.77-7.51,1.64-15c.4-3.4.8-6.8,1.23-10.2.47-3.63,1-7.26,1.54-10.89.74-5,1.48-10,2.06-15,.24-2.1.45-4.21.7-6.32.21-1.89.46-3.78.78-5.65.57-3.26,1.15-7.64,3.48-10.17a6.47,6.47,0,0,1,4.32-1.89,23.34,23.34,0,0,1,3-.06c4.09.1,8.18.3,12.26.54,2.12.12,4.23.27,6.34.42a17.87,17.87,0,0,0,1.19,3.13,26.43,26.43,0,0,0,1.91,3.3,40.55,40.55,0,0,0,10.51,10.47c1.52,1.06,3.07,2.09,4.63,3.11,4,2.65,8,5.33,11.24,8.87-.73,5.27-1.45,10.54-2.19,15.8C449.71,173.37,449.44,175.32,449.16,177.28ZM412.2,220a8,8,0,0,1,3.4.38,5.65,5.65,0,0,1,3.82,5,9.85,9.85,0,0,1-2.21,7.33,8.48,8.48,0,0,1-9.44,2.79,8.27,8.27,0,0,1-5.47-6.87,9.15,9.15,0,0,1,2.07-7C407,221.22,409.5,220.26,412.2,220Zm-39.59-42.79-10.06-.67q-6.27-.41-12.56-.73l-1.28-.06c-4.65-.21-9.32-.35-14-.57l-.42,0c-1.68-.08-3.37-.17-5.06-.29-1.52-.1-3.48-.33-4.68-1.38a2,2,0,0,1-.55-2.17,6.28,6.28,0,0,1,.91-1.81,10.9,10.9,0,0,1,6.27-3.85,29.5,29.5,0,0,1,3.36-.71l.34,0a65.28,65.28,0,0,1,7.11-.57c3.91-.13,7.83-.12,11.74,0h.7c6.59.17,13.14.57,19.73.59-.26,2.45-.53,4.91-.78,7.37-.16,1.58-.32,3.17-.49,4.75l0,.25A.61.61,0,0,0,372.61,177.25Zm-50.09,13.22a10.88,10.88,0,0,1,6.26-3.85l1.13-.28a50.92,50.92,0,0,1,9.68-1c1.25-.05,2.49-.07,3.74-.09,2.9,0,5.8,0,8.7.07,2.41.06,4.82.15,7.23.25,4.24.16,8.49.33,12.75.33l-.72,7c-.82-.45-1.65-.9-2.5-1.3l-.12-.05a24.77,24.77,0,0,0-9.84-2.35,95.33,95.33,0,0,0-11.69.76l-.53,0-8,.74-6.68.61-1.72.15-2.11.19c-2.15.19-4.31.39-6.47.56A6.3,6.3,0,0,1,322.52,190.47ZM199.07,291.7q-2.37,11.71-5.85,23.2l-.42,1.36c-2.47,8-5.29,15.84-8.37,23.6-.79,2-1.61,4-2.44,6-3,7.24-6,14.68-9.68,21.69a90.84,90.84,0,0,1-5.26,8.9,45.73,45.73,0,0,1-14.77,14.17,32,32,0,0,1-13,4.21c-10,.94-18.4-4.12-24.35-11.56a41.21,41.21,0,0,1-2.88-4.05,103.19,103.19,0,0,1-6.83-14.12c-1.43-3.33-2.78-6.7-4.08-10.08-.67-1.77-1.33-3.53-2-5.31q-4.29-12-7.5-24.26c-.56-2.11-1.11-4.23-1.62-6.35-2.12-8.83-3.85-17.75-5.26-26.71-1.82-11.6-3.1-23.28-4-35-.15-1.95-.29-3.91-.41-5.86q-1.05-16-1.25-32.11c-.14-11.53.09-23.06.77-34.57l.18-2.85a254.21,254.21,0,0,1,3.17-28.35c.41-2.33.87-4.65,1.36-7,1.9-9.12,4.29-18.19,6.81-27.12.65-2.32,1.34-4.62,2-6.93a188,188,0,0,1,11.2-28.5l1-1.91c4.64-9,10.5-17.92,19.29-23.22l.1-.07c10.38-6.2,22.69-4.34,32.39,2.31,1.16.8,2.27,1.66,3.34,2.56,8.09,6.8,13.81,16.37,18.82,25.5l.62,1.15a168.09,168.09,0,0,1,11.83,27.81,190.87,190.87,0,0,1,7.15,30.86c.31,2.09.6,4.19.85,6.29.66,5.66,1.11,11.33,1.42,17-2.63.73-5.27,1.42-7.94,2-2.95.62-5.91,1.19-8.88,1.75-6.05,1.13-12.12,2.19-18.13,3.48q-.42-1.15-.93-2.25h0a17,17,0,0,0-1.12-2,8.85,8.85,0,0,0-5.3-3.79c-4.21-1.09-9.31.4-13.55,1.33-2,.43-4,.9-6,1.39q-10,2.44-19.69,5.76l-.41.14c-1.84.63-3.68,1.26-5.49,2-1.38.54-2.35,1.33-2.11,2.94a24.81,24.81,0,0,0,1.38,4.59l-3.45.64c-3,.55-5.91,1.11-8.87,1.68l-.22,0a6.81,6.81,0,0,0-3.53-2.37,6.06,6.06,0,0,0-6.57,2.47,3.79,3.79,0,0,0-.49,1.17,1.3,1.3,0,0,0,.58,1.42c1.29.89,3.2.21,4.56,0,1.6-.32,3.19-.61,4.79-.92,2.31,3.59,1.31,8.15.65,12.1,0,.08,0,.17,0,.26a83.42,83.42,0,0,0-1.06,14.11,89.31,89.31,0,0,0,.61,9.66,106,106,0,0,0,3.23,16,128.6,128.6,0,0,0,9.14,23.14q1.54,3,3.22,6c2.79,4.94,6.29,9.51,9.1,14.45-4.11,1.65-7.52,4.72-7.74,9.55a10.29,10.29,0,0,0,4.6,8.87,6.11,6.11,0,0,0,7.11-.41c2.14-1.55,2.07-4.24,1.82-6.62a28.22,28.22,0,0,0-3.24-9.93c-.11-.22-.24-.43-.35-.65a17.85,17.85,0,0,1,2-.46c4.41-.72,8.94-.07,13.38,0,.92,0,1.85,0,2.78,0,1,2.65,2.57,4.89,5.52,5.6a12.55,12.55,0,0,0,8.35-1.31,39.33,39.33,0,0,0,7.49-5c1.08-.89,2.14-1.84,3.16-2.86,3.86-.94,7.7-2,11.51-3.14,2.06-.62,4.16-1.2,6.25-1.82s4-1.26,6-2a4.24,4.24,0,0,0,2.59-2.16c.7-1.73-.26-3.75-.78-5.39l-1.23-3.93q-2.8-8.91-5.6-17.83c.17-.23.36-.44.55-.65a5.18,5.18,0,0,1,2.27-1.41c2.05-.62,4.2-1,6.29-1.49s4.09-.86,6.14-1.25q0,9.21-.81,18.35A243.14,243.14,0,0,1,199.07,291.7Zm-33.19-109h0c1.41,4.45,2.79,8.9,4.18,13.36,1.18,3.78,2.35,7.57,3.56,11.35.93,2.92,1.84,5.86,2.77,8.79q2.72,8.57,5.41,17.15l.21.67q2.44,7.83,4.9,15.65h0v0c-1.58,2.43-2.35,5.64-3,8.17-.36,1.27-.7,2.65-1.09,4-.93,3.28-2.14,6.65-4.53,8.86.52-4.65-.5-10.14-4.92-12.24a5,5,0,0,0-.6-.24c-4.42-1.64-9,1.59-9.92,5.9a7.09,7.09,0,0,0-.13,2.48c.78,6.41,7.64,9.47,13.31,7.3a27.7,27.7,0,0,1-6.84,10.92c-3.42.83-6.87,1.55-10.35,2.13a99.84,99.84,0,0,1-12.33,1.27l-.09-.28q-2.93-9-5.81-18.12-4.08-12.8-8.17-25.61-1.68-5.31-3.38-10.62-3.34-10.5-6.7-21l-2.07-6.49-4.32-13.53-.07-.22c-.16-.48-.31-1-.46-1.44l-.48-1.48c0-.17-.11-.34-.16-.51s-.2-.55-.32-.86a8.12,8.12,0,0,1-.78-2.58c0-2,1.84-2.17,3.2-2.65,1.18-.43,2.36-.84,3.55-1.25h0q9.67-3.3,19.62-5.75c2.31-.56,4.62-1.1,6.94-1.59,3.57-.77,8.2-2.31,11.94-1.25a8.09,8.09,0,0,1,1.27.48,8.81,8.81,0,0,1,3.86,4.26A21.35,21.35,0,0,1,165,180c.18.5.35,1,.51,1.48l.31-.07Zm28.28,90.09a9,9,0,0,1,.78,3.14c-.14,1.44-1.45,1.8-2.57,2.18-2,.68-4,1.29-6,1.91l-1.16.35c-4.43,1.37-8.87,2.68-13.36,3.84a27.06,27.06,0,0,0,5.88-10.65c.05-.17.09-.36.13-.54,3.19-2.08,4.81-5.83,6-9.42.11-.36.23-.72.34-1.08.73-2.42,1.32-4.89,2.09-7.3a26,26,0,0,1,1.31-3.43l2.37,7.57,2.72,8.63C193.15,269.56,193.66,271.16,194.16,272.76Zm-29.87-8.21a6,6,0,0,1,2.61-4.06,5.72,5.72,0,0,1,5.45-.64,6.42,6.42,0,0,1,3.27,3.12,14.12,14.12,0,0,1,.86,9c-3.28,1.79-7.8,1.47-10.37-1.38A7.38,7.38,0,0,1,164.29,264.55ZM166.9,287c-1.11,1-2.26,1.87-3.42,2.7a38.38,38.38,0,0,1-4.55,2.84,15.61,15.61,0,0,1-3.76,1.42,7.8,7.8,0,0,1-5.4-.55,6.59,6.59,0,0,1-2.76-3.59c2.91-.13,5.82-.39,8.71-.78C159.48,288.5,163.21,287.8,166.9,287ZM102,208.38c.1-.71.22-1.43.35-2.16.58-3.31,1.25-6.7.46-10a11,11,0,0,0-1-2.68l7.61-1.46,4.49-.83,2.1,6.56L120.78,213l3.54,11.08q3.29,10.26,6.56,20.53Q135,257.35,139,270.1c.68,2.14,1.37,4.28,2.05,6.42,1.26,3.93,2.44,7.89,3.76,11.8-4.46.08-8.93-.47-13.38-.18a22.09,22.09,0,0,0-5,.92c-3.49-6.22-7.83-11.95-11.19-18.28-.35-.67-.7-1.35-1-2a127.15,127.15,0,0,1-9.19-23.12,96.28,96.28,0,0,1-3.8-24.25c0-.41,0-.82,0-1.24A78.46,78.46,0,0,1,102,208.38Zm-9.82-15.46a4.1,4.1,0,0,1,3-1.75A4.76,4.76,0,0,1,99,192.48l-2.45.47c-1.08.21-3.5,1.15-4.73.6A3.46,3.46,0,0,1,92.17,192.92Zm33.54,98c.58,1.07,1.13,2.16,1.61,3.28,1.31,3,2.66,7,1.92,10.35a3.7,3.7,0,0,1-2.84,2.6,4.61,4.61,0,0,1-4.27-.7,6.73,6.73,0,0,1-1.32-1.25,8.58,8.58,0,0,1-.78-9.89A11.42,11.42,0,0,1,125.71,290.89ZM314,247.39q-2.91,1-5.83,1.91c-2,.64-4.11,1.26-6.2,1.78-1.07.27-2.15.51-3.24.71a50.65,50.65,0,0,1-11.34.62c-.83,0-1.67-.09-2.5-.17a89.82,89.82,0,0,1-10.7-1.67c-4.21-.9-8.37-2-12.51-3.14l-4-1.08a156.28,156.28,0,0,0-20.15-4.44c-2.06-.27-4.14-.48-6.24-.59a102.48,102.48,0,0,0-16.43.57l-2.1.25c-3.77.48-7.53,1.11-11.26,1.85q-3.24.64-6.47,1.4a37.36,37.36,0,0,0-4.14,1c-.26.1-.53.19-.78.31a6.26,6.26,0,0,0-1.16.72,7.48,7.48,0,0,0-.86.74v0h0l-4.57-14.56q-1.86-5.93-3.71-11.84c-.63-2-1.27-4-1.9-6q-3-9.54-6.07-19.09l-.33-1c-1.2-3.72-2.4-7.43-3.47-11.18-.31-1.09-.62-2.2-1-3.3,6-1.27,12-2.31,18-3.44,1.44-.27,2.89-.54,4.32-.83,4.33-.86,8.57-1.92,12.79-3.07a.75.75,0,0,0,.76-.21q4-1.09,8-2.28l.16,0c8.08-2.38,16.24-4.48,24.42-6.48,6.76-1.65,13.54-3.22,20.32-4.8,1.9-.44,3.79-.9,5.68-1.27a33.72,33.72,0,0,1,10.24-.74c.61.07,1.25.17,1.88.3,3.49.71,6.87,2.54,6.4,6.68a.66.66,0,0,0,.32.62.84.84,0,0,0,.66.13,19.75,19.75,0,0,1,14.72,1.92h0c3.19,1.8,7,5.42,5.23,9.45a.83.83,0,0,0,0,.69.8.8,0,0,0,.9.45,14.55,14.55,0,0,1,10.25,2,10.24,10.24,0,0,1,3.05,3.16,6.39,6.39,0,0,1,1,4.79c-.5,1.91-2.28,2.13-3.32,3.55a1.27,1.27,0,0,0-.28,1.19,2,2,0,0,0,1.63,1.06c2.6.43,5.45,0,8.06-.24s5.28-.46,7.92-.7l.87-.08c5.22-.47,10.44-1,15.66-1.46,2.2-.2,4.4-.4,6.6-.57,3.94-.32,7.95-.4,11.76.82a26,26,0,0,1,3.23,1.32c2.27,1.1,4.41,2.45,6.57,3.73,3,1.76,6,3.4,9.05,5.1,1.14.65,2.29,1.3,3.41,2,3.43,2.05,6.8,4.21,10.21,6.3l.34.22c2.51,1.53,6.7,3.92,6.94,7.3.08,1.2-.69,1.82-1.42,2.56a24.33,24.33,0,0,1-9.86-1.55l-.35-.13c-5.1-1.76-10.14-3.82-15.07-6.08-1.86-.85-3.72-1.73-5.55-2.63-4-2-8.62-4.71-13.27-5.07a12.86,12.86,0,0,0-2.48,0c-4.53.58-9.05,1.56-13.55,2.37l-2.5.45q-6.9,1.25-13.79,2.52l-8.5,1.57c-5.33,1-10.65,2-15.94,3.17a11.89,11.89,0,0,0-1.78.45.91.91,0,0,0-.51.47.83.83,0,0,0,0,.67c1.25,2.52,2.54,5.17,4.64,7.1a10.78,10.78,0,0,0,2.18,1.54,15,15,0,0,0,5.5,1.59,56.13,56.13,0,0,0,6.87.28c5.2-.07,10.44-.64,15.61-.79,1.87,0,3.75-.15,5.64-.23a77.89,77.89,0,0,1,7.79-.05A19.77,19.77,0,0,1,359,229.89l.17.13c2.15,1.62,4.35,4.49,1.47,6.53-1.63,1.16-3.72,1.24-5.63,1.4l-.89.08-4.35.35a101.29,101.29,0,0,0-11.58,1.72c-3,.61-5.91,1.36-8.84,2.23C324.2,243.89,319.1,245.67,314,247.39Zm53.7-17.34c-.93-.1-1.89-.22-2.88-.35-1.38-.18-2.82-.38-4.27-.56a17.75,17.75,0,0,0-1.73-1.25,21.6,21.6,0,0,0-9.24-3.39,62.56,62.56,0,0,0-8.66,0c-1.31.07-2.61.13-3.9.17-3.56.11-7.12.14-10.67.43-2.23.19-4.46.34-6.68.39-1.32,0-2.63,0-3.94,0a19.4,19.4,0,0,1-7.43-1.4,9.12,9.12,0,0,1-2-1.27,18.75,18.75,0,0,1-4.23-6.17l.39-.1c1.45-.39,3-.59,4.42-.88,3.46-.7,6.93-1.36,10.4-2a3.51,3.51,0,0,0,1.16,1.22c3.11,2.09,7.85,1.56,11.39,1.71l7.49.32,3.92.16q7.1.31,14.19.73,6.66.39,13.33.84c-.05.57-.11,1.13-.16,1.7Q368.15,225.17,367.68,230.05ZM369.29,213l-.39,4.07q-6.76-.47-13.53-.86c-3.33-.19-6.67-.38-10-.54-2.54-.11-5.09-.2-7.64-.29-4.68-.16-9.37-.32-14-.64-1.53-.11-3.49-.33-4.69-1.38,0,0,0,0,0-.05q11-2.08,22-4l8.57-1.54,6.33-1.1a13.45,13.45,0,0,1,3.27-.15,16,16,0,0,1,3.8.81,59.61,59.61,0,0,1,6.66,2.78C369.48,211,369.38,212,369.29,213Zm-12,30.48q-5-.32-10-.68-2.54-.18-5.07-.39c-1-.08-2.73.06-3.65-.49a2.84,2.84,0,0,1-.37-.3l.37-.09c.82-.16,1.65-.32,2.48-.46,3.38-.57,6.78-1,10.2-1.24,1.19-.09,2.48-.12,3.77-.21a13.43,13.43,0,0,0,6.07-1.51c1.6-1,2.9-2.75,2.48-4.7a6,6,0,0,0-1.23-2.44l2.47.33,2.67.3c-.19,2-.37,4-.57,6-.21,2.16-.42,4.31-.64,6.47Zm91.3,34c-1,2.33-3.05,2.75-5.38,2.76a61.62,61.62,0,0,1-6.91-.53l-1.47-.15-10.42-1-11.65-1.11-17.52-1.67-12.51-1.2c-2.1-.2-4.67-.27-7.19-.64-3.48-.5-6.85-1.56-8.71-4.29-1.31-1.91-1.3-4.52-1.18-6.74a61.23,61.23,0,0,1,.77-6.32c.06-.37.11-.75.17-1.12.87-5.87,1.49-11.8,2-17.74.51-5.7,1-11.42,1.49-17.1a1.49,1.49,0,0,1,0-.21c.3-3.22.61-6.43.93-9.65,2.16,1.06,4.3,2.17,6.46,3.19,1.23.58,2.47,1.14,3.73,1.65l1.12.45c-.43,5.09-.81,10.2-1.15,15.3q-.42,6.09-.76,12.17l-.06,1.28c-.1,1.82-.19,3.64-.28,5.46s-.46,3.87.23,5.57a3.8,3.8,0,0,0,1.61,1.85c2.09,1.26,5.41,1.05,7.54,1.24l16.9,1.46,11,1c3.72.32,7.43.66,11.15,1,1,.09,2,.18,3,.25,1.67.14,3.37.18,4.79-.84a6.93,6.93,0,0,0,2.33-3.67,54.48,54.48,0,0,0,1.45-7.62c.2-1.25.39-2.51.59-3.77.3-1.95.61-3.91.9-5.87q1.1-7.26,2.15-14.52,1.8-12.34,3.53-24.71,1.41-10,2.81-20c.2-1.4.39-2.79.59-4.18l2.82-20.22a30.18,30.18,0,0,1,3.68,6,35,35,0,0,1,3.08,12.12,113.29,113.29,0,0,1,0,12.9c-.08,2.23-.17,4.45-.19,6.67a92.84,92.84,0,0,0,.45,10.93c.09.74.17,1.53.29,2.31a17.13,17.13,0,0,0,.63,2.75,9.17,9.17,0,0,0,.87,1.91,3.76,3.76,0,0,0,4.91,1.33,4.74,4.74,0,0,0,2-1.69c2.1-3.09,2.6-9.3-1.78-10.8a3,3,0,0,0-2.18,0,5.79,5.79,0,0,0-2.7,2.72c-.21.38-.38.78-.57,1.17-.72-5.47-.41-11.21-.23-16.63l0-.72c.19-5.5.42-11-.42-16.49a33.42,33.42,0,0,0-2.75-9.05,32.53,32.53,0,0,0-4-6.48c-3.34-4.28-7.79-7.37-12.28-10.34L439.56,144a44.94,44.94,0,0,1-12-11c-.47-.67-.93-1.36-1.35-2.08-1.28-2.17-2.56-4.84-2.28-7.43.13-1.19.35-2,1.58-2.06a12.58,12.58,0,0,1,5.77,1.79c1,.5,1.89,1,2.71,1.48,4.55,2.45,8.93,5.21,13.24,8.08,4.16,2.77,8.25,5.66,12.34,8.5l4.82,3.35q3.62,2.5,7.25,5a90.25,90.25,0,0,1,10,7.64,41,41,0,0,1,6.43,7.27,69.92,69.92,0,0,1,5.85,11c3.28,7.41,6.07,15.13,11,21.51.55.71,1.12,1.41,1.74,2.09a20.43,20.43,0,0,0,7.26,5.32c3.31,1.36,6.92,1.64,10.45,1.85l3.69.21,19.38,1.11,1.42.08c3.81.22,7.15.44,10.93.66a30,30,0,0,1,1.56,6.11c.25,1.51.47,3,.66,4.54q.45,3.47.71,7,.35,4.66.34,9.34,0,6.24-.57,12.45c-.23,2.41-.54,4.82-.91,7.22-.22,1.42-.45,2.83-.72,4.25a58.71,58.71,0,0,1-1.82,7.93c-2.06-.13-4.13-.21-6.2-.26a46.52,46.52,0,0,0-8.09.29.73.73,0,0,0-.51.46.82.82,0,0,0-.07.29c.14,4.12,3.86,7.31,7.74,7.49a6.76,6.76,0,0,0,4.23-1.15,11.16,11.16,0,0,0,4-5.48v0a7.9,7.9,0,0,0,.51-1.47c.1-.32.19-.65.28-1a96.68,96.68,0,0,0,2.21-11.09c.1-.67.2-1.33.29-2a130.05,130.05,0,0,0,1.21-18q0-4.52-.31-9c-.18-2.53-.44-5.06-.76-7.58-.24-1.85-.52-3.7-.85-5.53a23.9,23.9,0,0,0-2.34-7.24,12.58,12.58,0,0,0-1.35-2,8,8,0,0,0-8.15-2.85,7.56,7.56,0,0,0-2.31,1A15.74,15.74,0,0,1,561,193.05a12.73,12.73,0,0,1,4.86.43,15.88,15.88,0,0,1,9,7.35,37.6,37.6,0,0,1,4.51,13.76c.12.78.22,1.56.31,2.35a116.5,116.5,0,0,1,.56,14.82c0,.68-.05,1.36-.07,2a136.76,136.76,0,0,1-1.55,17c0,.1,0,.21-.05.31-.76,4.9-1.7,10.77-3.86,15.82-.37.87-.77,1.72-1.22,2.54-.26.46-.54.91-.82,1.35a16.11,16.11,0,0,1-7.4,6.39c-.18.08-.37.13-.56.2-8.11,3-18.65-.88-22-9.09a.62.62,0,0,0-.55-.58c-3.36-.53-6.78-.48-10.15-1l-.43-.06a76.21,76.21,0,0,0-8.12-1,49.12,49.12,0,0,0-10.55.77c-.87.15-1.73.31-2.6.5-.66.13-1.32.29-2,.43a40.54,40.54,0,0,0-11.63-.89c-1.91.06-3.81.22-5.69.43-2.79.31-5.57.73-8.35,1.2-5.67.95-11.49,2-17.32,2.45l-.43,0-1.95-.2a60,60,0,0,0-11.67-.55c-.08-1.14-.13-2.29-.18-3.43a120.95,120.95,0,0,1,3.94-36.65c.22-.86.48-1.71.72-2.57a160.53,160.53,0,0,1,5.67-16.36,18.27,18.27,0,0,1-.63-2.75c-1.08,2.54-2,5.17-3,7.71q-2,5.38-3.57,10.9a129.68,129.68,0,0,0-4.42,23.42q-.45,4.84-.5,9.73,0,3.52.17,7c.07,1.26.15,2.52.25,3.79A25.14,25.14,0,0,1,448.6,277.47Zm14.14-69.58,0-.09c.52-1.22,1.43-3.43,2.65-4.34.8-.59,1.73-.64,2.77.55,1.63,1.86,1.16,4.24.38,6.37a4.68,4.68,0,0,1-1.78,2.23,2.33,2.33,0,0,1-2.17.31c-1.28-.49-1.69-2.54-2-3.68-.06-.27-.1-.54-.16-.81Zm96.3-1.2L547.51,206h0c0-.11,0-.22,0-.33.49-2,2.57-3.1,4.6-3.31,2.86-.29,5.13,1.35,6.59,3.7,0,.09.09.18.14.26Zm-.55,61.92h0c-1.18,2.85-3.47,5.55-6.82,5.21l-.15,0a6.62,6.62,0,0,1-5.71-5.25,41.2,41.2,0,0,1,5.66-.2c2,0,5,.16,7,.26ZM582,179.48c0-.08,0-.16,0-.24,3.59,3.4,3.6,9.39,2.11,14.28C582.28,189,581.09,184.3,582,179.48Zm2.25,18.08c2,4.34,4.26,8.55,6.08,12.94a54.77,54.77,0,0,1,2.46,7.22,58.48,58.48,0,0,1,1.69,10.72,65.76,65.76,0,0,1-.3,12c-.25,2.2-.61,4.39-1,6.56-1,5.4-2.4,10.72-3.75,16-.18.7-.35,1.41-.53,2.12-.92,3.65-1.8,7.31-2.51,11l-.34-.27a37.59,37.59,0,0,0-11.23-5.95c.44-.81.83-1.65,1.2-2.5a51.75,51.75,0,0,0,3.06-10.24c.37-1.82.7-3.66,1-5.5a141.38,141.38,0,0,0,1.79-17.94,115.29,115.29,0,0,0-.63-16.85l-.12-1.05a46.9,46.9,0,0,0-2.86-11.71,17.41,17.41,0,0,0,2.62-2A16.86,16.86,0,0,0,584.23,197.56Zm8.48,101.8c-1.3.72-2.48.21-3.5-.74-2.49-2.33-3.08-5.38-3-8.67a77.37,77.37,0,0,1,1.09-10.51c0-.12,0-.25.07-.38a28.56,28.56,0,0,1,6,7.61,15.61,15.61,0,0,1,1.93,8.27,5.23,5.23,0,0,1-2.5,4.39S592.73,299.35,592.71,299.36ZM489.86,271a101.54,101.54,0,0,1-12,.51c-1.62,0-3.24-.09-4.86-.17,2.62-.38,5.22-.81,7.79-1.24,3.35-.56,6.67-1.14,10-1.52,1.59-.18,3.19-.32,4.81-.39a53.5,53.5,0,0,1,8.94.16c-2.58.6-5.17,1.2-7.79,1.68C494.51,270.41,492.19,270.74,489.86,271ZM616.93,298.5c-.53,3.92-1.13,7.83-1.76,11.74q-1.93,12-4.45,23.95c-1,4.57-2,9.2-3.18,13.76a84.67,84.67,0,0,1-8.4,21.37A36.21,36.21,0,0,1,592,378a46.61,46.61,0,0,1-16.42,9.28,25.27,25.27,0,0,1-8.77,1.57,28.51,28.51,0,0,1-9.07-1.93,32.89,32.89,0,0,1-11.12-7c-.38-.36-.76-.71-1.13-1.08-7-6.94-12.35-15.57-16.68-24.35q-1.83-3.69-3.5-7.47c-2.13-4.79-4.06-9.68-5.72-14.64a139.23,139.23,0,0,1-4.73-18.68c-1.74-9.31-2.79-18.77-3.83-28.18l0-.19q-.92-8.26-1.81-16.54c1.31-.28,2.63-.54,3.94-.77a46,46,0,0,1,16.79,0l1.34.2c3.39.44,6.82.51,10.2,1,3.39,7.72,12.32,11.82,20.52,10.52a17.21,17.21,0,0,0,3.25-.88,17.71,17.71,0,0,0,8.79-7.62,35.8,35.8,0,0,1,6.77,3,36.45,36.45,0,0,1,5.24,3.65c-.39,2.17-.73,4.36-1,6.57-.37,3.34-.88,7.1,0,10.4a9.89,9.89,0,0,0,4.69,6.07,3.9,3.9,0,0,0,3.29,0,6.73,6.73,0,0,0,2.67-2.28c1.58-2.21,1.27-5.66.67-8.17-1.22-5.18-4.72-9.66-8.71-13.16.75-4,1.7-7.92,2.69-11.85q.74-2.9,1.46-5.78c1-4.12,2-8.25,2.74-12.4A80.66,80.66,0,0,0,596,228.52a54.41,54.41,0,0,0-4.22-18.5c-1.48-3.65-3.21-7.19-5-10.77-.58-1.16-1.15-2.35-1.7-3.55A21.28,21.28,0,0,0,586.32,185a11.46,11.46,0,0,0-4.38-7.82.67.67,0,0,0-.61-.07.82.82,0,0,0-.53.53c-1.7,6.22,0,12.34,2.56,18a17.58,17.58,0,0,1-1.1,2.17,14.91,14.91,0,0,1-4.66,4.86,27.72,27.72,0,0,0-1.66-3,17.87,17.87,0,0,0-8.15-7.12,14.08,14.08,0,0,0-6.86-1c-7.27.68-14,6.57-15,14,0,.14,0,.28-.06.42l-11.62-.68c-1.94-.11-3.88-.2-5.82-.3-2.37-.12-4.74-.26-7.09-.49-4.2-.4-8.12-1.54-11.37-4.31-.16-.13-.29-.28-.45-.42A180.14,180.14,0,0,0,512.19,172c.26-9.6,0-19.23,0-28.86,0-5.31,0-10.62.08-15.93.11-4.49.34-9,.76-13.47a126.76,126.76,0,0,1,4-22.53c.6-2.12,1.26-4.27,2-6.42,2.93-8.6,7.11-17.09,13.8-23.18a28.59,28.59,0,0,1,4.2-3.15,22,22,0,0,1,9.62-3.29,23.59,23.59,0,0,1,14.94,4.26c.69.45,1.35.94,2,1.43,5.73,4.37,10.26,10.32,14.2,16.5,1.84,2.89,3.56,5.82,5.2,8.67,3,5.19,5.8,10.52,8.41,15.94a269.25,269.25,0,0,1,11.34,27.52c2.86,8.15,5.36,16.42,7.52,24.73l.24.95a323.45,323.45,0,0,1,7.1,36.34C619,202.21,620,213,620.48,223.84c0,.6.06,1.2.08,1.81a397.14,397.14,0,0,1-.5,41Q619.07,282.61,616.93,298.5Z"></path></svg>
