<svg id="visual" viewBox="0 0 1920 300" width="1920" height="300" xmlns="http://www.w3.org/2000/svg" xmlns:xlink="http://www.w3.org/1999/xlink" version="1.1"><g stroke-width="1" stroke-linejoin="bevel"><path d="M879.3 187L885.3 300L1046.7 181Z" fill="#246688" stroke="#246688"></path><path d="M885.3 300L1073.7 300L1046.7 181Z" fill="#205a7a" stroke="#205a7a"></path><path d="M1046.7 181L842.3 0L879.3 187Z" fill="#19435d" stroke="#19435d"></path><path d="M879.3 187L662 300L885.3 300Z" fill="#205a7a" stroke="#205a7a"></path><path d="M1327 115L1096.7 0L1046.7 181Z" fill="#19435d" stroke="#19435d"></path><path d="M1046.7 181L1096.7 0L842.3 0Z" fill="#112e42" stroke="#112e42"></path><path d="M1073.7 300L1257 300L1046.7 181Z" fill="#277297" stroke="#277297"></path><path d="M638 127L662 300L879.3 187Z" fill="#081a28" stroke="#081a28"></path><path d="M842.3 0L638 127L879.3 187Z" fill="#15384f" stroke="#15384f"></path><path d="M842.3 0L677 0L638 127Z" fill="#15384f" stroke="#15384f"></path><path d="M1257 300L1327 115L1046.7 181Z" fill="#297ea6" stroke="#297ea6"></path><path d="M1327 115L1306 0L1096.7 0Z" fill="#15384f" stroke="#15384f"></path><path d="M1511.3 300L1458.3 111L1327 115Z" fill="#246688" stroke="#246688"></path><path d="M1327 115L1447.3 0L1306 0Z" fill="#277297" stroke="#277297"></path><path d="M387.7 0L451.7 182L638 127Z" fill="#19435d" stroke="#19435d"></path><path d="M638 127L451.7 182L662 300Z" fill="#081a28" stroke="#081a28"></path><path d="M451.7 182L450.7 300L662 300Z" fill="#0c2435" stroke="#0c2435"></path><path d="M1458.3 111L1447.3 0L1327 115Z" fill="#19435d" stroke="#19435d"></path><path d="M1257 300L1511.3 300L1327 115Z" fill="#081a28" stroke="#081a28"></path><path d="M1458.3 111L1724.7 0L1447.3 0Z" fill="#0c2435" stroke="#0c2435"></path><path d="M677 0L387.7 0L638 127Z" fill="#277297" stroke="#277297"></path><path d="M451.7 182L251.3 300L450.7 300Z" fill="#19435d" stroke="#19435d"></path><path d="M1511.3 300L1661.7 300L1458.3 111Z" fill="#205a7a" stroke="#205a7a"></path><path d="M211.3 118L251.3 300L451.7 182Z" fill="#081a28" stroke="#081a28"></path><path d="M387.7 0L211.3 118L451.7 182Z" fill="#297ea6" stroke="#297ea6"></path><path d="M1661.7 300L1750.7 127L1458.3 111Z" fill="#00101c" stroke="#00101c"></path><path d="M1750.7 127L1724.7 0L1458.3 111Z" fill="#15384f" stroke="#15384f"></path><path d="M387.7 0L200.3 0L211.3 118Z" fill="#081a28" stroke="#081a28"></path><path d="M1661.7 300L1920 300L1750.7 127Z" fill="#15384f" stroke="#15384f"></path><path d="M1750.7 127L1920 0L1724.7 0Z" fill="#277297" stroke="#277297"></path><path d="M1920 300L1920 134L1750.7 127Z" fill="#112e42" stroke="#112e42"></path><path d="M0 0L0 191L211.3 118Z" fill="#277297" stroke="#277297"></path><path d="M211.3 118L0 191L251.3 300Z" fill="#277297" stroke="#277297"></path><path d="M0 191L0 300L251.3 300Z" fill="#19435d" stroke="#19435d"></path><path d="M1920 134L1920 0L1750.7 127Z" fill="#081a28" stroke="#081a28"></path><path d="M200.3 0L0 0L211.3 118Z" fill="#00101c" stroke="#00101c"></path></g></svg>