<svg width="60" height="60" viewBox="0 0 60 60" fill="none" xmlns="http://www.w3.org/2000/svg">
<circle cx="30" cy="30" r="28.5" stroke="#3A3A3A" stroke-width="3"/>
<path d="M5.55469 30.0001C5.55469 34.8348 6.98833 39.5608 9.67432 43.5807C12.3603 47.6006 16.178 50.7337 20.6446 52.5838C25.1113 54.434 30.0262 54.9181 34.768 53.9749C39.5098 53.0317 43.8653 50.7036 47.284 47.2849C50.7026 43.8663 53.0307 39.5107 53.9739 34.769C54.9171 30.0272 54.433 25.1123 52.5829 20.6456C50.7327 16.179 47.5996 12.3613 43.5797 9.6753C39.5599 6.98931 34.8338 5.55566 29.9991 5.55566L29.9991 30.0001L5.55469 30.0001Z" fill="#E3E6EB"/>
<rect x="4.44531" y="28.8892" width="25.5556" height="4.44444" fill="#FAFAFA"/>
<path d="M30.0009 11.1113V32.2224C30.0009 32.8361 29.5034 33.3335 28.8898 33.3335H14.4453" stroke="#E36306" stroke-width="3" stroke-linecap="round"/>
<circle cx="29.4438" cy="32.7778" r="2.77778" fill="#3A3A3A"/>
</svg>